G04 MADE WITH FRITZING*
G04 WWW.FRITZING.ORG*
G04 DOUBLE SIDED*
G04 HOLES PLATED*
G04 CONTOUR ON CENTER OF CONTOUR VECTOR*
%ASAXBY*%
%FSLAX23Y23*%
%MOIN*%
%OFA0B0*%
%SFA1.0B1.0*%
%ADD10C,0.085000*%
%ADD11C,0.088000*%
%ADD12C,0.080000*%
%ADD13C,0.072992*%
%ADD14R,0.085000X0.085000*%
%ADD15R,0.088000X0.088000*%
%ADD16R,0.072992X0.072992*%
%LNMASK1*%
G90*
G70*
G54D10*
X1405Y1513D03*
X1705Y1513D03*
X1405Y1413D03*
X1705Y1413D03*
X1405Y1313D03*
X1705Y1313D03*
X1405Y1213D03*
X1705Y1213D03*
X1405Y1113D03*
X1705Y1113D03*
X1405Y1013D03*
X1705Y1013D03*
X1405Y913D03*
X1705Y913D03*
G54D11*
X1505Y313D03*
X1605Y313D03*
X1505Y513D03*
X1605Y513D03*
X1705Y513D03*
X1205Y1513D03*
X1205Y1413D03*
G54D10*
X1905Y2013D03*
X2005Y2013D03*
X1305Y2013D03*
X1205Y2013D03*
G54D12*
X2605Y1613D03*
X2605Y1513D03*
X505Y1713D03*
X505Y1613D03*
G54D10*
X2605Y1313D03*
X2605Y1213D03*
X505Y1413D03*
X505Y1313D03*
G54D11*
X2105Y1013D03*
X2205Y1013D03*
X905Y1013D03*
X1005Y1013D03*
X1905Y1413D03*
X1905Y1313D03*
X405Y513D03*
X505Y513D03*
X605Y213D03*
X705Y213D03*
X905Y513D03*
X1005Y513D03*
G54D10*
X1605Y1713D03*
X1605Y2113D03*
G54D13*
X1805Y1813D03*
X1805Y1715D03*
G54D11*
X2405Y1713D03*
X2405Y1513D03*
X2405Y1313D03*
X805Y1813D03*
X805Y1613D03*
X805Y1413D03*
X1005Y1913D03*
X1005Y1713D03*
X1005Y1513D03*
X2205Y1813D03*
X2205Y1613D03*
X2205Y1413D03*
G54D14*
X1405Y1513D03*
G54D15*
X1505Y313D03*
X1505Y513D03*
G54D14*
X1905Y2013D03*
X1305Y2013D03*
X2605Y1313D03*
X505Y1413D03*
G54D16*
X1805Y1813D03*
G54D15*
X2405Y1713D03*
X805Y1813D03*
X1005Y1913D03*
X2205Y1813D03*
G04 End of Mask1*
M02*