; NON-PLATED HOLES START AT T1
; THROUGH (PLATED) HOLES START AT T100
M48
INCH
T100C0.031497
T101C0.030000
T102C0.035000
T103C0.038000
%
T100
X018052Y017145
X018052Y018129
T101
X026052Y016131
X026052Y015129
X005052Y017131
X005052Y016129
T102
X013052Y020129
X026052Y012129
X012052Y020129
X014052Y014129
X017052Y015129
X014052Y011129
X017052Y012129
X005052Y014129
X014052Y009129
X016052Y017129
X014052Y013129
X017052Y014129
X016052Y021129
X014052Y010129
X017052Y011129
X026052Y013129
X005052Y013129
X019052Y020129
X014052Y015129
X017052Y009129
X014052Y012129
X020052Y020129
X017052Y013129
X017052Y010129
T103
X010052Y019129
X016052Y003129
X022052Y018129
X005052Y005129
X009052Y010129
X004052Y005129
X010052Y010129
X008052Y014129
X024052Y013129
X017052Y005129
X016052Y005129
X012052Y015129
X009052Y005129
X019052Y014129
X021052Y010129
X010052Y015129
X022052Y014129
X008052Y016129
X024052Y015129
X010052Y005129
X015052Y003129
X007052Y002129
X006052Y002129
X010052Y017129
X012052Y014129
X022052Y016129
X019052Y013129
X008052Y018129
X024052Y017129
X015052Y005129
X022052Y010129
T00
M30
