G04 MADE WITH FRITZING*
G04 WWW.FRITZING.ORG*
G04 DOUBLE SIDED*
G04 HOLES PLATED*
G04 CONTOUR ON CENTER OF CONTOUR VECTOR*
%ASAXBY*%
%FSLAX23Y23*%
%MOIN*%
%OFA0B0*%
%SFA1.0B1.0*%
%ADD10C,0.075000*%
%ADD11C,0.078000*%
%ADD12C,0.070000*%
%ADD13C,0.062992*%
%ADD14R,0.075000X0.075000*%
%ADD15R,0.078000X0.078000*%
%ADD16R,0.062992X0.062992*%
%ADD17C,0.024000*%
%ADD18C,0.048000*%
%LNCOPPER1*%
G90*
G70*
G54D10*
X312Y1627D03*
X616Y1284D03*
X2708Y1526D03*
X212Y619D03*
X1685Y2175D03*
X1808Y1195D03*
X1405Y1513D03*
X1705Y1513D03*
X1405Y1413D03*
X1705Y1413D03*
X1405Y1313D03*
X1705Y1313D03*
X1405Y1213D03*
X1705Y1213D03*
X1405Y1113D03*
X1705Y1113D03*
X1405Y1013D03*
X1705Y1013D03*
X1405Y913D03*
X1705Y913D03*
G54D11*
X1505Y313D03*
X1605Y313D03*
X1505Y513D03*
X1605Y513D03*
X1705Y513D03*
X1205Y1513D03*
X1205Y1413D03*
X2405Y1713D03*
X2405Y1513D03*
X2405Y1313D03*
X2205Y1813D03*
X2205Y1613D03*
X2205Y1413D03*
X805Y1813D03*
X805Y1613D03*
X805Y1413D03*
X1005Y1913D03*
X1005Y1713D03*
X1005Y1513D03*
G54D10*
X1905Y2013D03*
X2005Y2013D03*
X1305Y2013D03*
X1205Y2013D03*
G54D12*
X2605Y1613D03*
X2605Y1513D03*
X505Y1713D03*
X505Y1613D03*
G54D10*
X2605Y1313D03*
X2605Y1213D03*
X505Y1413D03*
X505Y1313D03*
G54D11*
X2105Y1013D03*
X2205Y1013D03*
X905Y1013D03*
X1005Y1013D03*
X1905Y1413D03*
X1905Y1313D03*
X405Y513D03*
X505Y513D03*
X605Y213D03*
X705Y213D03*
X905Y513D03*
X1005Y513D03*
G54D10*
X1605Y1713D03*
X1605Y2113D03*
G54D13*
X1805Y1813D03*
X1805Y1715D03*
G54D14*
X1405Y1513D03*
G54D15*
X1505Y313D03*
X1505Y513D03*
X2405Y1713D03*
X2205Y1813D03*
X805Y1813D03*
X1005Y1913D03*
G54D14*
X1905Y2013D03*
X1305Y2013D03*
X2605Y1313D03*
X505Y1413D03*
G54D16*
X1805Y1813D03*
G54D17*
X1617Y303D02*
X1605Y313D01*
G54D18*
D02*
X1505Y354D02*
X1505Y472D01*
D02*
X1605Y354D02*
X1605Y472D01*
D02*
X1645Y1513D02*
X1705Y1513D01*
D02*
X1605Y513D02*
X1605Y1472D01*
D02*
X1468Y913D02*
X1405Y913D01*
D02*
X1505Y513D02*
X1508Y872D01*
D02*
X1262Y1513D02*
X1205Y1513D01*
D02*
X1405Y1513D02*
X1343Y1513D01*
D02*
X1364Y1413D02*
X1245Y1413D01*
D02*
X1046Y1513D02*
X1205Y1513D01*
D02*
X1205Y1513D02*
X1148Y1513D01*
D02*
X1205Y1713D02*
X1205Y2013D01*
D02*
X1046Y1713D02*
X1205Y1713D01*
D02*
X846Y1413D02*
X1164Y1413D01*
D02*
X842Y1595D02*
X1005Y1513D01*
D02*
X542Y1613D02*
X764Y1613D01*
D02*
X764Y1413D02*
X545Y1413D01*
D02*
X505Y1053D02*
X505Y1313D01*
D02*
X905Y1013D02*
X546Y1013D01*
D02*
X1303Y814D02*
X1005Y814D01*
D02*
X1005Y855D02*
X1005Y1013D01*
D02*
X1505Y513D02*
X1326Y780D01*
D02*
X208Y814D02*
X208Y1714D01*
D02*
X245Y1714D02*
X505Y1713D01*
D02*
X1005Y814D02*
X208Y814D01*
D02*
X1464Y2012D02*
X1305Y2013D01*
D02*
X1508Y913D02*
X1503Y2012D01*
D02*
X1866Y1413D02*
X1746Y1413D01*
D02*
X1866Y1313D02*
X1746Y1313D01*
D02*
X1946Y1413D02*
X2164Y1413D01*
D02*
X2004Y1612D02*
X2005Y2013D01*
D02*
X2164Y1613D02*
X2004Y1612D01*
D02*
X1543Y2012D02*
X1905Y2013D01*
D02*
X1946Y1313D02*
X2364Y1313D01*
D02*
X2205Y1413D02*
X2368Y1495D01*
D02*
X2568Y1513D02*
X2446Y1513D01*
D02*
X2566Y1313D02*
X2446Y1313D01*
D02*
X2605Y1053D02*
X2605Y1213D01*
D02*
X2205Y1013D02*
X2564Y1013D01*
D02*
X1205Y115D02*
X2105Y115D01*
D02*
X1205Y511D02*
X1205Y115D01*
D02*
X2105Y156D02*
X2105Y1013D01*
D02*
X1505Y513D02*
X1246Y511D01*
D02*
X2804Y115D02*
X2804Y1613D01*
D02*
X2767Y1613D02*
X2605Y1613D01*
D02*
X2105Y115D02*
X2804Y115D01*
D02*
X405Y254D02*
X405Y513D01*
D02*
X605Y213D02*
X446Y213D01*
D02*
X646Y513D02*
X905Y513D01*
D02*
X605Y213D02*
X605Y472D01*
D02*
X1005Y254D02*
X1005Y513D01*
D02*
X705Y213D02*
X964Y213D01*
D02*
X706Y115D02*
X105Y115D01*
D02*
X105Y115D02*
X105Y712D01*
D02*
X105Y712D02*
X506Y712D01*
D02*
X506Y670D02*
X505Y513D01*
D02*
X705Y213D02*
X706Y156D01*
D02*
X1543Y2114D02*
X1605Y2113D01*
D02*
X1503Y2012D02*
X1503Y2115D01*
D02*
X1805Y1551D02*
X1805Y1715D01*
D02*
X1705Y1513D02*
X1766Y1513D01*
D02*
X1664Y1713D02*
X1605Y1713D01*
D02*
X1805Y1813D02*
X1731Y1740D01*
G36*
X242Y1680D02*
X242Y1568D01*
X496Y1568D01*
X496Y1570D01*
X490Y1570D01*
X490Y1572D01*
X486Y1572D01*
X486Y1574D01*
X484Y1574D01*
X484Y1576D01*
X480Y1576D01*
X480Y1578D01*
X478Y1578D01*
X478Y1580D01*
X476Y1580D01*
X476Y1582D01*
X474Y1582D01*
X474Y1584D01*
X472Y1584D01*
X472Y1586D01*
X470Y1586D01*
X470Y1588D01*
X468Y1588D01*
X468Y1592D01*
X466Y1592D01*
X466Y1596D01*
X464Y1596D01*
X464Y1600D01*
X462Y1600D01*
X462Y1606D01*
X460Y1606D01*
X460Y1620D01*
X462Y1620D01*
X462Y1626D01*
X464Y1626D01*
X464Y1630D01*
X466Y1630D01*
X466Y1634D01*
X468Y1634D01*
X468Y1638D01*
X470Y1638D01*
X470Y1640D01*
X472Y1640D01*
X472Y1642D01*
X474Y1642D01*
X474Y1644D01*
X476Y1644D01*
X476Y1646D01*
X478Y1646D01*
X478Y1648D01*
X480Y1648D01*
X480Y1650D01*
X484Y1650D01*
X484Y1652D01*
X488Y1652D01*
X488Y1674D01*
X484Y1674D01*
X484Y1676D01*
X480Y1676D01*
X480Y1678D01*
X478Y1678D01*
X478Y1680D01*
X242Y1680D01*
G37*
D02*
G36*
X530Y1578D02*
X530Y1576D01*
X528Y1576D01*
X528Y1574D01*
X524Y1574D01*
X524Y1572D01*
X520Y1572D01*
X520Y1570D01*
X514Y1570D01*
X514Y1568D01*
X786Y1568D01*
X786Y1570D01*
X782Y1570D01*
X782Y1572D01*
X778Y1572D01*
X778Y1574D01*
X776Y1574D01*
X776Y1576D01*
X774Y1576D01*
X774Y1578D01*
X530Y1578D01*
G37*
D02*
G36*
X242Y1568D02*
X242Y1566D01*
X790Y1566D01*
X790Y1568D01*
X242Y1568D01*
G37*
D02*
G36*
X242Y1568D02*
X242Y1566D01*
X790Y1566D01*
X790Y1568D01*
X242Y1568D01*
G37*
D02*
G36*
X242Y1566D02*
X242Y1462D01*
X812Y1462D01*
X812Y1460D01*
X820Y1460D01*
X820Y1458D01*
X824Y1458D01*
X824Y1456D01*
X828Y1456D01*
X828Y1454D01*
X830Y1454D01*
X830Y1452D01*
X834Y1452D01*
X834Y1450D01*
X836Y1450D01*
X836Y1448D01*
X838Y1448D01*
X838Y1446D01*
X996Y1446D01*
X996Y1466D01*
X990Y1466D01*
X990Y1468D01*
X986Y1468D01*
X986Y1470D01*
X982Y1470D01*
X982Y1472D01*
X978Y1472D01*
X978Y1474D01*
X976Y1474D01*
X976Y1476D01*
X974Y1476D01*
X974Y1478D01*
X972Y1478D01*
X972Y1480D01*
X970Y1480D01*
X970Y1482D01*
X968Y1482D01*
X968Y1484D01*
X966Y1484D01*
X966Y1488D01*
X964Y1488D01*
X964Y1490D01*
X962Y1490D01*
X962Y1494D01*
X960Y1494D01*
X960Y1498D01*
X956Y1498D01*
X956Y1500D01*
X952Y1500D01*
X952Y1502D01*
X948Y1502D01*
X948Y1504D01*
X944Y1504D01*
X944Y1506D01*
X940Y1506D01*
X940Y1508D01*
X936Y1508D01*
X936Y1510D01*
X932Y1510D01*
X932Y1512D01*
X928Y1512D01*
X928Y1514D01*
X924Y1514D01*
X924Y1516D01*
X920Y1516D01*
X920Y1518D01*
X916Y1518D01*
X916Y1520D01*
X912Y1520D01*
X912Y1522D01*
X908Y1522D01*
X908Y1524D01*
X904Y1524D01*
X904Y1526D01*
X900Y1526D01*
X900Y1528D01*
X896Y1528D01*
X896Y1530D01*
X892Y1530D01*
X892Y1532D01*
X888Y1532D01*
X888Y1534D01*
X884Y1534D01*
X884Y1536D01*
X880Y1536D01*
X880Y1538D01*
X876Y1538D01*
X876Y1540D01*
X872Y1540D01*
X872Y1542D01*
X868Y1542D01*
X868Y1544D01*
X864Y1544D01*
X864Y1546D01*
X860Y1546D01*
X860Y1548D01*
X856Y1548D01*
X856Y1550D01*
X852Y1550D01*
X852Y1552D01*
X848Y1552D01*
X848Y1554D01*
X844Y1554D01*
X844Y1556D01*
X840Y1556D01*
X840Y1558D01*
X836Y1558D01*
X836Y1560D01*
X832Y1560D01*
X832Y1562D01*
X828Y1562D01*
X828Y1564D01*
X796Y1564D01*
X796Y1566D01*
X242Y1566D01*
G37*
D02*
G36*
X242Y1462D02*
X242Y1460D01*
X552Y1460D01*
X552Y1446D01*
X772Y1446D01*
X772Y1448D01*
X774Y1448D01*
X774Y1450D01*
X776Y1450D01*
X776Y1452D01*
X780Y1452D01*
X780Y1454D01*
X782Y1454D01*
X782Y1456D01*
X786Y1456D01*
X786Y1458D01*
X792Y1458D01*
X792Y1460D01*
X798Y1460D01*
X798Y1462D01*
X242Y1462D01*
G37*
D02*
G36*
X242Y1460D02*
X242Y964D01*
X896Y964D01*
X896Y966D01*
X890Y966D01*
X890Y968D01*
X886Y968D01*
X886Y970D01*
X882Y970D01*
X882Y972D01*
X878Y972D01*
X878Y974D01*
X876Y974D01*
X876Y976D01*
X874Y976D01*
X874Y978D01*
X544Y978D01*
X544Y980D01*
X534Y980D01*
X534Y982D01*
X530Y982D01*
X530Y984D01*
X528Y984D01*
X528Y986D01*
X524Y986D01*
X524Y988D01*
X522Y988D01*
X522Y990D01*
X520Y990D01*
X520Y992D01*
X518Y992D01*
X518Y996D01*
X516Y996D01*
X516Y1000D01*
X514Y1000D01*
X514Y1008D01*
X512Y1008D01*
X512Y1018D01*
X500Y1018D01*
X500Y1020D01*
X492Y1020D01*
X492Y1022D01*
X488Y1022D01*
X488Y1024D01*
X486Y1024D01*
X486Y1026D01*
X482Y1026D01*
X482Y1028D01*
X480Y1028D01*
X480Y1032D01*
X478Y1032D01*
X478Y1034D01*
X476Y1034D01*
X476Y1038D01*
X474Y1038D01*
X474Y1042D01*
X472Y1042D01*
X472Y1282D01*
X470Y1282D01*
X470Y1284D01*
X468Y1284D01*
X468Y1286D01*
X466Y1286D01*
X466Y1290D01*
X464Y1290D01*
X464Y1294D01*
X462Y1294D01*
X462Y1298D01*
X460Y1298D01*
X460Y1304D01*
X458Y1304D01*
X458Y1322D01*
X460Y1322D01*
X460Y1328D01*
X462Y1328D01*
X462Y1332D01*
X464Y1332D01*
X464Y1336D01*
X466Y1336D01*
X466Y1338D01*
X468Y1338D01*
X468Y1342D01*
X470Y1342D01*
X470Y1344D01*
X472Y1344D01*
X472Y1346D01*
X474Y1346D01*
X474Y1366D01*
X458Y1366D01*
X458Y1460D01*
X242Y1460D01*
G37*
D02*
G36*
X946Y988D02*
X946Y986D01*
X944Y986D01*
X944Y984D01*
X942Y984D01*
X942Y982D01*
X940Y982D01*
X940Y980D01*
X938Y980D01*
X938Y978D01*
X936Y978D01*
X936Y976D01*
X934Y976D01*
X934Y974D01*
X932Y974D01*
X932Y972D01*
X928Y972D01*
X928Y970D01*
X924Y970D01*
X924Y968D01*
X920Y968D01*
X920Y966D01*
X914Y966D01*
X914Y964D01*
X972Y964D01*
X972Y980D01*
X970Y980D01*
X970Y982D01*
X968Y982D01*
X968Y984D01*
X966Y984D01*
X966Y988D01*
X946Y988D01*
G37*
D02*
G36*
X242Y964D02*
X242Y962D01*
X972Y962D01*
X972Y964D01*
X242Y964D01*
G37*
D02*
G36*
X242Y964D02*
X242Y962D01*
X972Y962D01*
X972Y964D01*
X242Y964D01*
G37*
D02*
G36*
X242Y962D02*
X242Y848D01*
X970Y848D01*
X970Y942D01*
X972Y942D01*
X972Y962D01*
X242Y962D01*
G37*
D02*
G36*
X1292Y1500D02*
X1292Y1496D01*
X1290Y1496D01*
X1290Y1492D01*
X1288Y1492D01*
X1288Y1490D01*
X1286Y1490D01*
X1286Y1488D01*
X1284Y1488D01*
X1284Y1486D01*
X1280Y1486D01*
X1280Y1484D01*
X1278Y1484D01*
X1278Y1482D01*
X1272Y1482D01*
X1272Y1480D01*
X1254Y1480D01*
X1254Y1478D01*
X1236Y1478D01*
X1236Y1476D01*
X1234Y1476D01*
X1234Y1474D01*
X1232Y1474D01*
X1232Y1472D01*
X1230Y1472D01*
X1230Y1452D01*
X1234Y1452D01*
X1234Y1450D01*
X1236Y1450D01*
X1236Y1448D01*
X1238Y1448D01*
X1238Y1446D01*
X1374Y1446D01*
X1374Y1466D01*
X1358Y1466D01*
X1358Y1478D01*
X1350Y1478D01*
X1350Y1480D01*
X1332Y1480D01*
X1332Y1482D01*
X1328Y1482D01*
X1328Y1484D01*
X1324Y1484D01*
X1324Y1486D01*
X1322Y1486D01*
X1322Y1488D01*
X1318Y1488D01*
X1318Y1490D01*
X1316Y1490D01*
X1316Y1494D01*
X1314Y1494D01*
X1314Y1496D01*
X1312Y1496D01*
X1312Y1500D01*
X1292Y1500D01*
G37*
D02*
G36*
X1640Y1478D02*
X1640Y1422D01*
X1660Y1422D01*
X1660Y1428D01*
X1662Y1428D01*
X1662Y1432D01*
X1664Y1432D01*
X1664Y1436D01*
X1666Y1436D01*
X1666Y1438D01*
X1668Y1438D01*
X1668Y1442D01*
X1670Y1442D01*
X1670Y1444D01*
X1672Y1444D01*
X1672Y1446D01*
X1674Y1446D01*
X1674Y1448D01*
X1676Y1448D01*
X1676Y1450D01*
X1680Y1450D01*
X1680Y1452D01*
X1682Y1452D01*
X1682Y1474D01*
X1678Y1474D01*
X1678Y1476D01*
X1676Y1476D01*
X1676Y1478D01*
X1640Y1478D01*
G37*
D02*
G36*
X1640Y1404D02*
X1640Y1322D01*
X1660Y1322D01*
X1660Y1328D01*
X1662Y1328D01*
X1662Y1332D01*
X1664Y1332D01*
X1664Y1336D01*
X1666Y1336D01*
X1666Y1338D01*
X1668Y1338D01*
X1668Y1342D01*
X1670Y1342D01*
X1670Y1344D01*
X1672Y1344D01*
X1672Y1346D01*
X1674Y1346D01*
X1674Y1348D01*
X1676Y1348D01*
X1676Y1350D01*
X1680Y1350D01*
X1680Y1352D01*
X1682Y1352D01*
X1682Y1374D01*
X1678Y1374D01*
X1678Y1376D01*
X1676Y1376D01*
X1676Y1378D01*
X1674Y1378D01*
X1674Y1380D01*
X1672Y1380D01*
X1672Y1382D01*
X1670Y1382D01*
X1670Y1384D01*
X1668Y1384D01*
X1668Y1386D01*
X1666Y1386D01*
X1666Y1390D01*
X1664Y1390D01*
X1664Y1394D01*
X1662Y1394D01*
X1662Y1398D01*
X1660Y1398D01*
X1660Y1404D01*
X1640Y1404D01*
G37*
D02*
G36*
X552Y1378D02*
X552Y1366D01*
X536Y1366D01*
X536Y1364D01*
X796Y1364D01*
X796Y1366D01*
X790Y1366D01*
X790Y1368D01*
X786Y1368D01*
X786Y1370D01*
X782Y1370D01*
X782Y1372D01*
X778Y1372D01*
X778Y1374D01*
X776Y1374D01*
X776Y1376D01*
X774Y1376D01*
X774Y1378D01*
X552Y1378D01*
G37*
D02*
G36*
X836Y1378D02*
X836Y1376D01*
X834Y1376D01*
X834Y1374D01*
X832Y1374D01*
X832Y1372D01*
X828Y1372D01*
X828Y1370D01*
X824Y1370D01*
X824Y1368D01*
X820Y1368D01*
X820Y1366D01*
X814Y1366D01*
X814Y1364D01*
X1196Y1364D01*
X1196Y1366D01*
X1190Y1366D01*
X1190Y1368D01*
X1186Y1368D01*
X1186Y1370D01*
X1182Y1370D01*
X1182Y1372D01*
X1178Y1372D01*
X1178Y1374D01*
X1176Y1374D01*
X1176Y1376D01*
X1174Y1376D01*
X1174Y1378D01*
X836Y1378D01*
G37*
D02*
G36*
X1236Y1378D02*
X1236Y1376D01*
X1234Y1376D01*
X1234Y1374D01*
X1232Y1374D01*
X1232Y1372D01*
X1228Y1372D01*
X1228Y1370D01*
X1224Y1370D01*
X1224Y1368D01*
X1220Y1368D01*
X1220Y1366D01*
X1214Y1366D01*
X1214Y1364D01*
X1382Y1364D01*
X1382Y1374D01*
X1378Y1374D01*
X1378Y1376D01*
X1376Y1376D01*
X1376Y1378D01*
X1236Y1378D01*
G37*
D02*
G36*
X536Y1364D02*
X536Y1362D01*
X1382Y1362D01*
X1382Y1364D01*
X536Y1364D01*
G37*
D02*
G36*
X536Y1364D02*
X536Y1362D01*
X1382Y1362D01*
X1382Y1364D01*
X536Y1364D01*
G37*
D02*
G36*
X536Y1364D02*
X536Y1362D01*
X1382Y1362D01*
X1382Y1364D01*
X536Y1364D01*
G37*
D02*
G36*
X536Y1362D02*
X536Y1346D01*
X538Y1346D01*
X538Y1344D01*
X540Y1344D01*
X540Y1342D01*
X542Y1342D01*
X542Y1340D01*
X544Y1340D01*
X544Y1336D01*
X546Y1336D01*
X546Y1332D01*
X548Y1332D01*
X548Y1328D01*
X550Y1328D01*
X550Y1324D01*
X552Y1324D01*
X552Y1302D01*
X550Y1302D01*
X550Y1296D01*
X548Y1296D01*
X548Y1292D01*
X546Y1292D01*
X546Y1290D01*
X544Y1290D01*
X544Y1286D01*
X542Y1286D01*
X542Y1284D01*
X540Y1284D01*
X540Y1062D01*
X1012Y1062D01*
X1012Y1060D01*
X1020Y1060D01*
X1020Y1058D01*
X1024Y1058D01*
X1024Y1056D01*
X1028Y1056D01*
X1028Y1054D01*
X1030Y1054D01*
X1030Y1052D01*
X1034Y1052D01*
X1034Y1050D01*
X1036Y1050D01*
X1036Y1048D01*
X1038Y1048D01*
X1038Y1046D01*
X1040Y1046D01*
X1040Y1044D01*
X1042Y1044D01*
X1042Y1042D01*
X1044Y1042D01*
X1044Y1040D01*
X1046Y1040D01*
X1046Y1036D01*
X1048Y1036D01*
X1048Y1032D01*
X1050Y1032D01*
X1050Y1028D01*
X1052Y1028D01*
X1052Y1022D01*
X1054Y1022D01*
X1054Y1004D01*
X1052Y1004D01*
X1052Y998D01*
X1050Y998D01*
X1050Y994D01*
X1048Y994D01*
X1048Y990D01*
X1046Y990D01*
X1046Y986D01*
X1044Y986D01*
X1044Y984D01*
X1042Y984D01*
X1042Y982D01*
X1040Y982D01*
X1040Y938D01*
X1038Y938D01*
X1038Y866D01*
X1394Y866D01*
X1394Y868D01*
X1390Y868D01*
X1390Y870D01*
X1386Y870D01*
X1386Y872D01*
X1382Y872D01*
X1382Y874D01*
X1378Y874D01*
X1378Y876D01*
X1376Y876D01*
X1376Y878D01*
X1374Y878D01*
X1374Y880D01*
X1372Y880D01*
X1372Y882D01*
X1370Y882D01*
X1370Y884D01*
X1368Y884D01*
X1368Y886D01*
X1366Y886D01*
X1366Y890D01*
X1364Y890D01*
X1364Y894D01*
X1362Y894D01*
X1362Y898D01*
X1360Y898D01*
X1360Y904D01*
X1358Y904D01*
X1358Y922D01*
X1360Y922D01*
X1360Y928D01*
X1362Y928D01*
X1362Y932D01*
X1364Y932D01*
X1364Y936D01*
X1366Y936D01*
X1366Y938D01*
X1368Y938D01*
X1368Y942D01*
X1370Y942D01*
X1370Y944D01*
X1372Y944D01*
X1372Y946D01*
X1374Y946D01*
X1374Y948D01*
X1376Y948D01*
X1376Y950D01*
X1380Y950D01*
X1380Y952D01*
X1382Y952D01*
X1382Y974D01*
X1378Y974D01*
X1378Y976D01*
X1376Y976D01*
X1376Y978D01*
X1374Y978D01*
X1374Y980D01*
X1372Y980D01*
X1372Y982D01*
X1370Y982D01*
X1370Y984D01*
X1368Y984D01*
X1368Y986D01*
X1366Y986D01*
X1366Y990D01*
X1364Y990D01*
X1364Y994D01*
X1362Y994D01*
X1362Y998D01*
X1360Y998D01*
X1360Y1004D01*
X1358Y1004D01*
X1358Y1022D01*
X1360Y1022D01*
X1360Y1028D01*
X1362Y1028D01*
X1362Y1032D01*
X1364Y1032D01*
X1364Y1036D01*
X1366Y1036D01*
X1366Y1038D01*
X1368Y1038D01*
X1368Y1042D01*
X1370Y1042D01*
X1370Y1044D01*
X1372Y1044D01*
X1372Y1046D01*
X1374Y1046D01*
X1374Y1048D01*
X1376Y1048D01*
X1376Y1050D01*
X1380Y1050D01*
X1380Y1052D01*
X1382Y1052D01*
X1382Y1074D01*
X1378Y1074D01*
X1378Y1076D01*
X1376Y1076D01*
X1376Y1078D01*
X1374Y1078D01*
X1374Y1080D01*
X1372Y1080D01*
X1372Y1082D01*
X1370Y1082D01*
X1370Y1084D01*
X1368Y1084D01*
X1368Y1086D01*
X1366Y1086D01*
X1366Y1090D01*
X1364Y1090D01*
X1364Y1094D01*
X1362Y1094D01*
X1362Y1098D01*
X1360Y1098D01*
X1360Y1104D01*
X1358Y1104D01*
X1358Y1122D01*
X1360Y1122D01*
X1360Y1128D01*
X1362Y1128D01*
X1362Y1132D01*
X1364Y1132D01*
X1364Y1136D01*
X1366Y1136D01*
X1366Y1138D01*
X1368Y1138D01*
X1368Y1142D01*
X1370Y1142D01*
X1370Y1144D01*
X1372Y1144D01*
X1372Y1146D01*
X1374Y1146D01*
X1374Y1148D01*
X1376Y1148D01*
X1376Y1150D01*
X1380Y1150D01*
X1380Y1152D01*
X1382Y1152D01*
X1382Y1174D01*
X1378Y1174D01*
X1378Y1176D01*
X1376Y1176D01*
X1376Y1178D01*
X1374Y1178D01*
X1374Y1180D01*
X1372Y1180D01*
X1372Y1182D01*
X1370Y1182D01*
X1370Y1184D01*
X1368Y1184D01*
X1368Y1186D01*
X1366Y1186D01*
X1366Y1190D01*
X1364Y1190D01*
X1364Y1194D01*
X1362Y1194D01*
X1362Y1198D01*
X1360Y1198D01*
X1360Y1204D01*
X1358Y1204D01*
X1358Y1222D01*
X1360Y1222D01*
X1360Y1228D01*
X1362Y1228D01*
X1362Y1232D01*
X1364Y1232D01*
X1364Y1236D01*
X1366Y1236D01*
X1366Y1238D01*
X1368Y1238D01*
X1368Y1242D01*
X1370Y1242D01*
X1370Y1244D01*
X1372Y1244D01*
X1372Y1246D01*
X1374Y1246D01*
X1374Y1248D01*
X1376Y1248D01*
X1376Y1250D01*
X1380Y1250D01*
X1380Y1252D01*
X1382Y1252D01*
X1382Y1274D01*
X1378Y1274D01*
X1378Y1276D01*
X1376Y1276D01*
X1376Y1278D01*
X1374Y1278D01*
X1374Y1280D01*
X1372Y1280D01*
X1372Y1282D01*
X1370Y1282D01*
X1370Y1284D01*
X1368Y1284D01*
X1368Y1286D01*
X1366Y1286D01*
X1366Y1290D01*
X1364Y1290D01*
X1364Y1294D01*
X1362Y1294D01*
X1362Y1298D01*
X1360Y1298D01*
X1360Y1304D01*
X1358Y1304D01*
X1358Y1322D01*
X1360Y1322D01*
X1360Y1328D01*
X1362Y1328D01*
X1362Y1332D01*
X1364Y1332D01*
X1364Y1336D01*
X1366Y1336D01*
X1366Y1338D01*
X1368Y1338D01*
X1368Y1342D01*
X1370Y1342D01*
X1370Y1344D01*
X1372Y1344D01*
X1372Y1346D01*
X1374Y1346D01*
X1374Y1348D01*
X1376Y1348D01*
X1376Y1350D01*
X1380Y1350D01*
X1380Y1352D01*
X1382Y1352D01*
X1382Y1362D01*
X536Y1362D01*
G37*
D02*
G36*
X540Y1062D02*
X540Y1046D01*
X872Y1046D01*
X872Y1048D01*
X874Y1048D01*
X874Y1050D01*
X876Y1050D01*
X876Y1052D01*
X880Y1052D01*
X880Y1054D01*
X882Y1054D01*
X882Y1056D01*
X886Y1056D01*
X886Y1058D01*
X892Y1058D01*
X892Y1060D01*
X898Y1060D01*
X898Y1062D01*
X540Y1062D01*
G37*
D02*
G36*
X912Y1062D02*
X912Y1060D01*
X920Y1060D01*
X920Y1058D01*
X924Y1058D01*
X924Y1056D01*
X928Y1056D01*
X928Y1054D01*
X930Y1054D01*
X930Y1052D01*
X934Y1052D01*
X934Y1050D01*
X936Y1050D01*
X936Y1048D01*
X938Y1048D01*
X938Y1046D01*
X940Y1046D01*
X940Y1044D01*
X942Y1044D01*
X942Y1042D01*
X944Y1042D01*
X944Y1040D01*
X946Y1040D01*
X946Y1038D01*
X966Y1038D01*
X966Y1042D01*
X968Y1042D01*
X968Y1044D01*
X970Y1044D01*
X970Y1046D01*
X972Y1046D01*
X972Y1048D01*
X974Y1048D01*
X974Y1050D01*
X976Y1050D01*
X976Y1052D01*
X980Y1052D01*
X980Y1054D01*
X982Y1054D01*
X982Y1056D01*
X986Y1056D01*
X986Y1058D01*
X992Y1058D01*
X992Y1060D01*
X998Y1060D01*
X998Y1062D01*
X912Y1062D01*
G37*
D02*
G36*
X1434Y878D02*
X1434Y876D01*
X1432Y876D01*
X1432Y874D01*
X1428Y874D01*
X1428Y872D01*
X1426Y872D01*
X1426Y870D01*
X1422Y870D01*
X1422Y868D01*
X1416Y868D01*
X1416Y866D01*
X1474Y866D01*
X1474Y878D01*
X1434Y878D01*
G37*
D02*
G36*
X1038Y866D02*
X1038Y864D01*
X1474Y864D01*
X1474Y866D01*
X1038Y866D01*
G37*
D02*
G36*
X1038Y866D02*
X1038Y864D01*
X1474Y864D01*
X1474Y866D01*
X1038Y866D01*
G37*
D02*
G36*
X1038Y864D02*
X1038Y848D01*
X1310Y848D01*
X1310Y846D01*
X1316Y846D01*
X1316Y844D01*
X1320Y844D01*
X1320Y842D01*
X1324Y842D01*
X1324Y840D01*
X1326Y840D01*
X1326Y838D01*
X1328Y838D01*
X1328Y836D01*
X1330Y836D01*
X1330Y834D01*
X1332Y834D01*
X1332Y830D01*
X1334Y830D01*
X1334Y824D01*
X1336Y824D01*
X1336Y812D01*
X1340Y812D01*
X1340Y810D01*
X1344Y810D01*
X1344Y808D01*
X1346Y808D01*
X1346Y806D01*
X1348Y806D01*
X1348Y804D01*
X1350Y804D01*
X1350Y802D01*
X1352Y802D01*
X1352Y800D01*
X1354Y800D01*
X1354Y798D01*
X1356Y798D01*
X1356Y794D01*
X1358Y794D01*
X1358Y792D01*
X1360Y792D01*
X1360Y788D01*
X1362Y788D01*
X1362Y786D01*
X1364Y786D01*
X1364Y782D01*
X1366Y782D01*
X1366Y780D01*
X1368Y780D01*
X1368Y776D01*
X1370Y776D01*
X1370Y774D01*
X1372Y774D01*
X1372Y770D01*
X1374Y770D01*
X1374Y768D01*
X1376Y768D01*
X1376Y764D01*
X1378Y764D01*
X1378Y762D01*
X1380Y762D01*
X1380Y758D01*
X1382Y758D01*
X1382Y756D01*
X1384Y756D01*
X1384Y752D01*
X1386Y752D01*
X1386Y750D01*
X1388Y750D01*
X1388Y746D01*
X1390Y746D01*
X1390Y744D01*
X1392Y744D01*
X1392Y740D01*
X1394Y740D01*
X1394Y738D01*
X1396Y738D01*
X1396Y734D01*
X1398Y734D01*
X1398Y732D01*
X1400Y732D01*
X1400Y728D01*
X1402Y728D01*
X1402Y726D01*
X1404Y726D01*
X1404Y722D01*
X1406Y722D01*
X1406Y720D01*
X1408Y720D01*
X1408Y718D01*
X1410Y718D01*
X1410Y714D01*
X1412Y714D01*
X1412Y712D01*
X1414Y712D01*
X1414Y708D01*
X1416Y708D01*
X1416Y706D01*
X1418Y706D01*
X1418Y702D01*
X1420Y702D01*
X1420Y700D01*
X1422Y700D01*
X1422Y696D01*
X1424Y696D01*
X1424Y694D01*
X1426Y694D01*
X1426Y690D01*
X1428Y690D01*
X1428Y688D01*
X1430Y688D01*
X1430Y684D01*
X1432Y684D01*
X1432Y682D01*
X1434Y682D01*
X1434Y678D01*
X1436Y678D01*
X1436Y676D01*
X1438Y676D01*
X1438Y672D01*
X1440Y672D01*
X1440Y670D01*
X1442Y670D01*
X1442Y666D01*
X1444Y666D01*
X1444Y664D01*
X1446Y664D01*
X1446Y660D01*
X1448Y660D01*
X1448Y658D01*
X1450Y658D01*
X1450Y654D01*
X1452Y654D01*
X1452Y652D01*
X1472Y652D01*
X1472Y766D01*
X1474Y766D01*
X1474Y864D01*
X1038Y864D01*
G37*
D02*
G36*
X1734Y1378D02*
X1734Y1376D01*
X1732Y1376D01*
X1732Y1374D01*
X1728Y1374D01*
X1728Y1352D01*
X1732Y1352D01*
X1732Y1350D01*
X1734Y1350D01*
X1734Y1348D01*
X1736Y1348D01*
X1736Y1346D01*
X1872Y1346D01*
X1872Y1348D01*
X1874Y1348D01*
X1874Y1350D01*
X1876Y1350D01*
X1876Y1352D01*
X1880Y1352D01*
X1880Y1372D01*
X1878Y1372D01*
X1878Y1374D01*
X1876Y1374D01*
X1876Y1376D01*
X1874Y1376D01*
X1874Y1378D01*
X1734Y1378D01*
G37*
D02*
G36*
X1936Y1378D02*
X1936Y1376D01*
X1934Y1376D01*
X1934Y1374D01*
X1932Y1374D01*
X1932Y1372D01*
X1930Y1372D01*
X1930Y1352D01*
X1934Y1352D01*
X1934Y1350D01*
X1936Y1350D01*
X1936Y1348D01*
X1938Y1348D01*
X1938Y1346D01*
X2196Y1346D01*
X2196Y1366D01*
X2190Y1366D01*
X2190Y1368D01*
X2186Y1368D01*
X2186Y1370D01*
X2182Y1370D01*
X2182Y1372D01*
X2178Y1372D01*
X2178Y1374D01*
X2176Y1374D01*
X2176Y1376D01*
X2174Y1376D01*
X2174Y1378D01*
X1936Y1378D01*
G37*
D02*
G36*
X1640Y1304D02*
X1640Y1222D01*
X1660Y1222D01*
X1660Y1228D01*
X1662Y1228D01*
X1662Y1232D01*
X1664Y1232D01*
X1664Y1236D01*
X1666Y1236D01*
X1666Y1238D01*
X1668Y1238D01*
X1668Y1242D01*
X1670Y1242D01*
X1670Y1244D01*
X1672Y1244D01*
X1672Y1246D01*
X1674Y1246D01*
X1674Y1248D01*
X1676Y1248D01*
X1676Y1250D01*
X1680Y1250D01*
X1680Y1252D01*
X1682Y1252D01*
X1682Y1274D01*
X1678Y1274D01*
X1678Y1276D01*
X1676Y1276D01*
X1676Y1278D01*
X1674Y1278D01*
X1674Y1280D01*
X1672Y1280D01*
X1672Y1282D01*
X1670Y1282D01*
X1670Y1284D01*
X1668Y1284D01*
X1668Y1286D01*
X1666Y1286D01*
X1666Y1290D01*
X1664Y1290D01*
X1664Y1294D01*
X1662Y1294D01*
X1662Y1298D01*
X1660Y1298D01*
X1660Y1304D01*
X1640Y1304D01*
G37*
D02*
G36*
X1640Y1204D02*
X1640Y1122D01*
X1660Y1122D01*
X1660Y1128D01*
X1662Y1128D01*
X1662Y1132D01*
X1664Y1132D01*
X1664Y1136D01*
X1666Y1136D01*
X1666Y1138D01*
X1668Y1138D01*
X1668Y1142D01*
X1670Y1142D01*
X1670Y1144D01*
X1672Y1144D01*
X1672Y1146D01*
X1674Y1146D01*
X1674Y1148D01*
X1676Y1148D01*
X1676Y1150D01*
X1680Y1150D01*
X1680Y1152D01*
X1682Y1152D01*
X1682Y1174D01*
X1678Y1174D01*
X1678Y1176D01*
X1676Y1176D01*
X1676Y1178D01*
X1674Y1178D01*
X1674Y1180D01*
X1672Y1180D01*
X1672Y1182D01*
X1670Y1182D01*
X1670Y1184D01*
X1668Y1184D01*
X1668Y1186D01*
X1666Y1186D01*
X1666Y1190D01*
X1664Y1190D01*
X1664Y1194D01*
X1662Y1194D01*
X1662Y1198D01*
X1660Y1198D01*
X1660Y1204D01*
X1640Y1204D01*
G37*
D02*
G36*
X1640Y1104D02*
X1640Y1022D01*
X1660Y1022D01*
X1660Y1028D01*
X1662Y1028D01*
X1662Y1032D01*
X1664Y1032D01*
X1664Y1036D01*
X1666Y1036D01*
X1666Y1038D01*
X1668Y1038D01*
X1668Y1042D01*
X1670Y1042D01*
X1670Y1044D01*
X1672Y1044D01*
X1672Y1046D01*
X1674Y1046D01*
X1674Y1048D01*
X1676Y1048D01*
X1676Y1050D01*
X1680Y1050D01*
X1680Y1052D01*
X1682Y1052D01*
X1682Y1074D01*
X1678Y1074D01*
X1678Y1076D01*
X1676Y1076D01*
X1676Y1078D01*
X1674Y1078D01*
X1674Y1080D01*
X1672Y1080D01*
X1672Y1082D01*
X1670Y1082D01*
X1670Y1084D01*
X1668Y1084D01*
X1668Y1086D01*
X1666Y1086D01*
X1666Y1090D01*
X1664Y1090D01*
X1664Y1094D01*
X1662Y1094D01*
X1662Y1098D01*
X1660Y1098D01*
X1660Y1104D01*
X1640Y1104D01*
G37*
D02*
G36*
X1640Y1004D02*
X1640Y922D01*
X1660Y922D01*
X1660Y928D01*
X1662Y928D01*
X1662Y932D01*
X1664Y932D01*
X1664Y936D01*
X1666Y936D01*
X1666Y938D01*
X1668Y938D01*
X1668Y942D01*
X1670Y942D01*
X1670Y944D01*
X1672Y944D01*
X1672Y946D01*
X1674Y946D01*
X1674Y948D01*
X1676Y948D01*
X1676Y950D01*
X1680Y950D01*
X1680Y952D01*
X1682Y952D01*
X1682Y974D01*
X1678Y974D01*
X1678Y976D01*
X1676Y976D01*
X1676Y978D01*
X1674Y978D01*
X1674Y980D01*
X1672Y980D01*
X1672Y982D01*
X1670Y982D01*
X1670Y984D01*
X1668Y984D01*
X1668Y986D01*
X1666Y986D01*
X1666Y990D01*
X1664Y990D01*
X1664Y994D01*
X1662Y994D01*
X1662Y998D01*
X1660Y998D01*
X1660Y1004D01*
X1640Y1004D01*
G37*
D02*
G36*
X2630Y1578D02*
X2630Y1576D01*
X2626Y1576D01*
X2626Y1574D01*
X2624Y1574D01*
X2624Y1552D01*
X2626Y1552D01*
X2626Y1550D01*
X2630Y1550D01*
X2630Y1548D01*
X2632Y1548D01*
X2632Y1546D01*
X2634Y1546D01*
X2634Y1544D01*
X2636Y1544D01*
X2636Y1542D01*
X2638Y1542D01*
X2638Y1540D01*
X2640Y1540D01*
X2640Y1538D01*
X2642Y1538D01*
X2642Y1534D01*
X2644Y1534D01*
X2644Y1532D01*
X2646Y1532D01*
X2646Y1528D01*
X2648Y1528D01*
X2648Y1522D01*
X2650Y1522D01*
X2650Y1504D01*
X2648Y1504D01*
X2648Y1498D01*
X2646Y1498D01*
X2646Y1494D01*
X2644Y1494D01*
X2644Y1490D01*
X2642Y1490D01*
X2642Y1488D01*
X2640Y1488D01*
X2640Y1486D01*
X2638Y1486D01*
X2638Y1484D01*
X2636Y1484D01*
X2636Y1482D01*
X2634Y1482D01*
X2634Y1480D01*
X2632Y1480D01*
X2632Y1478D01*
X2630Y1478D01*
X2630Y1476D01*
X2628Y1476D01*
X2628Y1474D01*
X2624Y1474D01*
X2624Y1472D01*
X2620Y1472D01*
X2620Y1470D01*
X2614Y1470D01*
X2614Y1468D01*
X2770Y1468D01*
X2770Y1578D01*
X2630Y1578D01*
G37*
D02*
G36*
X2436Y1478D02*
X2436Y1476D01*
X2434Y1476D01*
X2434Y1474D01*
X2432Y1474D01*
X2432Y1472D01*
X2428Y1472D01*
X2428Y1470D01*
X2424Y1470D01*
X2424Y1468D01*
X2596Y1468D01*
X2596Y1470D01*
X2590Y1470D01*
X2590Y1472D01*
X2586Y1472D01*
X2586Y1474D01*
X2584Y1474D01*
X2584Y1476D01*
X2580Y1476D01*
X2580Y1478D01*
X2436Y1478D01*
G37*
D02*
G36*
X2420Y1468D02*
X2420Y1466D01*
X2770Y1466D01*
X2770Y1468D01*
X2420Y1468D01*
G37*
D02*
G36*
X2420Y1468D02*
X2420Y1466D01*
X2770Y1466D01*
X2770Y1468D01*
X2420Y1468D01*
G37*
D02*
G36*
X2414Y1466D02*
X2414Y1464D01*
X2382Y1464D01*
X2382Y1462D01*
X2378Y1462D01*
X2378Y1460D01*
X2374Y1460D01*
X2374Y1458D01*
X2370Y1458D01*
X2370Y1456D01*
X2366Y1456D01*
X2366Y1454D01*
X2362Y1454D01*
X2362Y1452D01*
X2358Y1452D01*
X2358Y1450D01*
X2354Y1450D01*
X2354Y1448D01*
X2350Y1448D01*
X2350Y1446D01*
X2346Y1446D01*
X2346Y1444D01*
X2342Y1444D01*
X2342Y1442D01*
X2338Y1442D01*
X2338Y1440D01*
X2334Y1440D01*
X2334Y1438D01*
X2330Y1438D01*
X2330Y1436D01*
X2326Y1436D01*
X2326Y1434D01*
X2322Y1434D01*
X2322Y1432D01*
X2318Y1432D01*
X2318Y1430D01*
X2314Y1430D01*
X2314Y1428D01*
X2310Y1428D01*
X2310Y1426D01*
X2306Y1426D01*
X2306Y1424D01*
X2302Y1424D01*
X2302Y1422D01*
X2298Y1422D01*
X2298Y1420D01*
X2294Y1420D01*
X2294Y1418D01*
X2290Y1418D01*
X2290Y1416D01*
X2286Y1416D01*
X2286Y1414D01*
X2282Y1414D01*
X2282Y1412D01*
X2278Y1412D01*
X2278Y1410D01*
X2274Y1410D01*
X2274Y1408D01*
X2270Y1408D01*
X2270Y1406D01*
X2266Y1406D01*
X2266Y1404D01*
X2262Y1404D01*
X2262Y1402D01*
X2258Y1402D01*
X2258Y1400D01*
X2254Y1400D01*
X2254Y1398D01*
X2250Y1398D01*
X2250Y1394D01*
X2248Y1394D01*
X2248Y1390D01*
X2246Y1390D01*
X2246Y1386D01*
X2244Y1386D01*
X2244Y1384D01*
X2242Y1384D01*
X2242Y1382D01*
X2240Y1382D01*
X2240Y1380D01*
X2238Y1380D01*
X2238Y1378D01*
X2236Y1378D01*
X2236Y1376D01*
X2234Y1376D01*
X2234Y1374D01*
X2232Y1374D01*
X2232Y1372D01*
X2228Y1372D01*
X2228Y1370D01*
X2224Y1370D01*
X2224Y1368D01*
X2220Y1368D01*
X2220Y1366D01*
X2214Y1366D01*
X2214Y1362D01*
X2412Y1362D01*
X2412Y1360D01*
X2652Y1360D01*
X2652Y1266D01*
X2636Y1266D01*
X2636Y1246D01*
X2638Y1246D01*
X2638Y1244D01*
X2640Y1244D01*
X2640Y1242D01*
X2642Y1242D01*
X2642Y1240D01*
X2644Y1240D01*
X2644Y1236D01*
X2646Y1236D01*
X2646Y1232D01*
X2648Y1232D01*
X2648Y1228D01*
X2650Y1228D01*
X2650Y1224D01*
X2652Y1224D01*
X2652Y1202D01*
X2650Y1202D01*
X2650Y1196D01*
X2648Y1196D01*
X2648Y1192D01*
X2646Y1192D01*
X2646Y1190D01*
X2644Y1190D01*
X2644Y1186D01*
X2642Y1186D01*
X2642Y1184D01*
X2640Y1184D01*
X2640Y1050D01*
X2638Y1050D01*
X2638Y1040D01*
X2636Y1040D01*
X2636Y1036D01*
X2634Y1036D01*
X2634Y1034D01*
X2632Y1034D01*
X2632Y1030D01*
X2630Y1030D01*
X2630Y1028D01*
X2628Y1028D01*
X2628Y1026D01*
X2626Y1026D01*
X2626Y1024D01*
X2622Y1024D01*
X2622Y1022D01*
X2618Y1022D01*
X2618Y1020D01*
X2610Y1020D01*
X2610Y1018D01*
X2598Y1018D01*
X2598Y1004D01*
X2596Y1004D01*
X2596Y998D01*
X2594Y998D01*
X2594Y996D01*
X2592Y996D01*
X2592Y992D01*
X2590Y992D01*
X2590Y990D01*
X2588Y990D01*
X2588Y988D01*
X2586Y988D01*
X2586Y986D01*
X2584Y986D01*
X2584Y984D01*
X2580Y984D01*
X2580Y982D01*
X2576Y982D01*
X2576Y980D01*
X2566Y980D01*
X2566Y978D01*
X2236Y978D01*
X2236Y976D01*
X2234Y976D01*
X2234Y974D01*
X2232Y974D01*
X2232Y972D01*
X2228Y972D01*
X2228Y970D01*
X2224Y970D01*
X2224Y968D01*
X2220Y968D01*
X2220Y966D01*
X2214Y966D01*
X2214Y964D01*
X2770Y964D01*
X2770Y1466D01*
X2414Y1466D01*
G37*
D02*
G36*
X2214Y1362D02*
X2214Y1346D01*
X2372Y1346D01*
X2372Y1348D01*
X2374Y1348D01*
X2374Y1350D01*
X2376Y1350D01*
X2376Y1352D01*
X2380Y1352D01*
X2380Y1354D01*
X2382Y1354D01*
X2382Y1356D01*
X2386Y1356D01*
X2386Y1358D01*
X2392Y1358D01*
X2392Y1360D01*
X2398Y1360D01*
X2398Y1362D01*
X2214Y1362D01*
G37*
D02*
G36*
X2420Y1360D02*
X2420Y1358D01*
X2424Y1358D01*
X2424Y1356D01*
X2428Y1356D01*
X2428Y1354D01*
X2430Y1354D01*
X2430Y1352D01*
X2434Y1352D01*
X2434Y1350D01*
X2436Y1350D01*
X2436Y1348D01*
X2438Y1348D01*
X2438Y1346D01*
X2558Y1346D01*
X2558Y1360D01*
X2420Y1360D01*
G37*
D02*
G36*
X2146Y988D02*
X2146Y986D01*
X2144Y986D01*
X2144Y984D01*
X2142Y984D01*
X2142Y982D01*
X2140Y982D01*
X2140Y964D01*
X2196Y964D01*
X2196Y966D01*
X2190Y966D01*
X2190Y968D01*
X2186Y968D01*
X2186Y970D01*
X2182Y970D01*
X2182Y972D01*
X2178Y972D01*
X2178Y974D01*
X2176Y974D01*
X2176Y976D01*
X2174Y976D01*
X2174Y978D01*
X2172Y978D01*
X2172Y980D01*
X2170Y980D01*
X2170Y982D01*
X2168Y982D01*
X2168Y984D01*
X2166Y984D01*
X2166Y988D01*
X2146Y988D01*
G37*
D02*
G36*
X2140Y964D02*
X2140Y962D01*
X2770Y962D01*
X2770Y964D01*
X2140Y964D01*
G37*
D02*
G36*
X2140Y964D02*
X2140Y962D01*
X2770Y962D01*
X2770Y964D01*
X2140Y964D01*
G37*
D02*
G36*
X2140Y962D02*
X2140Y636D01*
X2138Y636D01*
X2138Y148D01*
X2770Y148D01*
X2770Y962D01*
X2140Y962D01*
G37*
D02*
G36*
X138Y678D02*
X138Y562D01*
X412Y562D01*
X412Y560D01*
X420Y560D01*
X420Y558D01*
X424Y558D01*
X424Y556D01*
X428Y556D01*
X428Y554D01*
X430Y554D01*
X430Y552D01*
X434Y552D01*
X434Y550D01*
X436Y550D01*
X436Y548D01*
X438Y548D01*
X438Y546D01*
X440Y546D01*
X440Y544D01*
X442Y544D01*
X442Y542D01*
X444Y542D01*
X444Y540D01*
X446Y540D01*
X446Y538D01*
X466Y538D01*
X466Y542D01*
X468Y542D01*
X468Y544D01*
X470Y544D01*
X470Y546D01*
X472Y546D01*
X472Y678D01*
X138Y678D01*
G37*
D02*
G36*
X138Y562D02*
X138Y148D01*
X590Y148D01*
X590Y168D01*
X586Y168D01*
X586Y170D01*
X582Y170D01*
X582Y172D01*
X578Y172D01*
X578Y174D01*
X576Y174D01*
X576Y176D01*
X574Y176D01*
X574Y178D01*
X444Y178D01*
X444Y180D01*
X434Y180D01*
X434Y182D01*
X430Y182D01*
X430Y184D01*
X428Y184D01*
X428Y186D01*
X424Y186D01*
X424Y188D01*
X422Y188D01*
X422Y190D01*
X420Y190D01*
X420Y192D01*
X418Y192D01*
X418Y196D01*
X416Y196D01*
X416Y200D01*
X414Y200D01*
X414Y208D01*
X412Y208D01*
X412Y220D01*
X398Y220D01*
X398Y222D01*
X392Y222D01*
X392Y224D01*
X388Y224D01*
X388Y226D01*
X384Y226D01*
X384Y228D01*
X382Y228D01*
X382Y230D01*
X380Y230D01*
X380Y232D01*
X378Y232D01*
X378Y236D01*
X376Y236D01*
X376Y238D01*
X374Y238D01*
X374Y244D01*
X372Y244D01*
X372Y480D01*
X370Y480D01*
X370Y482D01*
X368Y482D01*
X368Y484D01*
X366Y484D01*
X366Y488D01*
X364Y488D01*
X364Y490D01*
X362Y490D01*
X362Y494D01*
X360Y494D01*
X360Y500D01*
X358Y500D01*
X358Y506D01*
X356Y506D01*
X356Y520D01*
X358Y520D01*
X358Y526D01*
X360Y526D01*
X360Y532D01*
X362Y532D01*
X362Y536D01*
X364Y536D01*
X364Y538D01*
X366Y538D01*
X366Y542D01*
X368Y542D01*
X368Y544D01*
X370Y544D01*
X370Y546D01*
X372Y546D01*
X372Y548D01*
X374Y548D01*
X374Y550D01*
X376Y550D01*
X376Y552D01*
X380Y552D01*
X380Y554D01*
X382Y554D01*
X382Y556D01*
X386Y556D01*
X386Y558D01*
X392Y558D01*
X392Y560D01*
X398Y560D01*
X398Y562D01*
X138Y562D01*
G37*
D02*
G36*
X40Y2238D02*
X40Y2160D01*
X1614Y2160D01*
X1614Y2158D01*
X1620Y2158D01*
X1620Y2156D01*
X1624Y2156D01*
X1624Y2154D01*
X1628Y2154D01*
X1628Y2152D01*
X1632Y2152D01*
X1632Y2150D01*
X1634Y2150D01*
X1634Y2148D01*
X1636Y2148D01*
X1636Y2146D01*
X1638Y2146D01*
X1638Y2144D01*
X1640Y2144D01*
X1640Y2142D01*
X1642Y2142D01*
X1642Y2140D01*
X1644Y2140D01*
X1644Y2136D01*
X1646Y2136D01*
X1646Y2132D01*
X1648Y2132D01*
X1648Y2128D01*
X1650Y2128D01*
X1650Y2124D01*
X1652Y2124D01*
X1652Y2102D01*
X1650Y2102D01*
X1650Y2096D01*
X1648Y2096D01*
X1648Y2092D01*
X1646Y2092D01*
X1646Y2090D01*
X1644Y2090D01*
X1644Y2086D01*
X1642Y2086D01*
X1642Y2084D01*
X1640Y2084D01*
X1640Y2082D01*
X1638Y2082D01*
X1638Y2080D01*
X1636Y2080D01*
X1636Y2078D01*
X1634Y2078D01*
X1634Y2076D01*
X1632Y2076D01*
X1632Y2074D01*
X1628Y2074D01*
X1628Y2072D01*
X1626Y2072D01*
X1626Y2070D01*
X1622Y2070D01*
X1622Y2068D01*
X1616Y2068D01*
X1616Y2066D01*
X2966Y2066D01*
X2966Y2238D01*
X40Y2238D01*
G37*
D02*
G36*
X40Y2160D02*
X40Y2148D01*
X1512Y2148D01*
X1512Y2146D01*
X1536Y2146D01*
X1536Y2148D01*
X1576Y2148D01*
X1576Y2150D01*
X1580Y2150D01*
X1580Y2152D01*
X1582Y2152D01*
X1582Y2154D01*
X1586Y2154D01*
X1586Y2156D01*
X1590Y2156D01*
X1590Y2158D01*
X1596Y2158D01*
X1596Y2160D01*
X40Y2160D01*
G37*
D02*
G36*
X40Y2148D02*
X40Y2060D01*
X1352Y2060D01*
X1352Y2046D01*
X1470Y2046D01*
X1470Y2124D01*
X1472Y2124D01*
X1472Y2130D01*
X1474Y2130D01*
X1474Y2134D01*
X1476Y2134D01*
X1476Y2136D01*
X1478Y2136D01*
X1478Y2138D01*
X1480Y2138D01*
X1480Y2140D01*
X1482Y2140D01*
X1482Y2142D01*
X1484Y2142D01*
X1484Y2144D01*
X1488Y2144D01*
X1488Y2146D01*
X1494Y2146D01*
X1494Y2148D01*
X40Y2148D01*
G37*
D02*
G36*
X1538Y2080D02*
X1538Y2066D01*
X1594Y2066D01*
X1594Y2068D01*
X1590Y2068D01*
X1590Y2070D01*
X1586Y2070D01*
X1586Y2072D01*
X1582Y2072D01*
X1582Y2074D01*
X1578Y2074D01*
X1578Y2076D01*
X1576Y2076D01*
X1576Y2078D01*
X1574Y2078D01*
X1574Y2080D01*
X1538Y2080D01*
G37*
D02*
G36*
X1538Y2066D02*
X1538Y2064D01*
X2966Y2064D01*
X2966Y2066D01*
X1538Y2066D01*
G37*
D02*
G36*
X1538Y2066D02*
X1538Y2064D01*
X2966Y2064D01*
X2966Y2066D01*
X1538Y2066D01*
G37*
D02*
G36*
X1538Y2064D02*
X1538Y2060D01*
X2014Y2060D01*
X2014Y2058D01*
X2020Y2058D01*
X2020Y2056D01*
X2024Y2056D01*
X2024Y2054D01*
X2028Y2054D01*
X2028Y2052D01*
X2032Y2052D01*
X2032Y2050D01*
X2034Y2050D01*
X2034Y2048D01*
X2036Y2048D01*
X2036Y2046D01*
X2038Y2046D01*
X2038Y2044D01*
X2040Y2044D01*
X2040Y2042D01*
X2042Y2042D01*
X2042Y2040D01*
X2044Y2040D01*
X2044Y2036D01*
X2046Y2036D01*
X2046Y2032D01*
X2048Y2032D01*
X2048Y2028D01*
X2050Y2028D01*
X2050Y2024D01*
X2052Y2024D01*
X2052Y2002D01*
X2050Y2002D01*
X2050Y1996D01*
X2048Y1996D01*
X2048Y1992D01*
X2046Y1992D01*
X2046Y1990D01*
X2044Y1990D01*
X2044Y1986D01*
X2042Y1986D01*
X2042Y1984D01*
X2040Y1984D01*
X2040Y1950D01*
X2038Y1950D01*
X2038Y1862D01*
X2254Y1862D01*
X2254Y1764D01*
X2966Y1764D01*
X2966Y2064D01*
X1538Y2064D01*
G37*
D02*
G36*
X40Y2060D02*
X40Y1962D01*
X1054Y1962D01*
X1054Y1864D01*
X1172Y1864D01*
X1172Y1982D01*
X1170Y1982D01*
X1170Y1984D01*
X1168Y1984D01*
X1168Y1986D01*
X1166Y1986D01*
X1166Y1990D01*
X1164Y1990D01*
X1164Y1994D01*
X1162Y1994D01*
X1162Y1998D01*
X1160Y1998D01*
X1160Y2004D01*
X1158Y2004D01*
X1158Y2022D01*
X1160Y2022D01*
X1160Y2028D01*
X1162Y2028D01*
X1162Y2032D01*
X1164Y2032D01*
X1164Y2036D01*
X1166Y2036D01*
X1166Y2038D01*
X1168Y2038D01*
X1168Y2042D01*
X1170Y2042D01*
X1170Y2044D01*
X1172Y2044D01*
X1172Y2046D01*
X1174Y2046D01*
X1174Y2048D01*
X1176Y2048D01*
X1176Y2050D01*
X1180Y2050D01*
X1180Y2052D01*
X1182Y2052D01*
X1182Y2054D01*
X1186Y2054D01*
X1186Y2056D01*
X1190Y2056D01*
X1190Y2058D01*
X1196Y2058D01*
X1196Y2060D01*
X40Y2060D01*
G37*
D02*
G36*
X1214Y2060D02*
X1214Y2058D01*
X1220Y2058D01*
X1220Y2056D01*
X1224Y2056D01*
X1224Y2054D01*
X1228Y2054D01*
X1228Y2052D01*
X1232Y2052D01*
X1232Y2050D01*
X1234Y2050D01*
X1234Y2048D01*
X1236Y2048D01*
X1236Y2046D01*
X1238Y2046D01*
X1238Y2044D01*
X1258Y2044D01*
X1258Y2060D01*
X1214Y2060D01*
G37*
D02*
G36*
X1538Y2060D02*
X1538Y2046D01*
X1858Y2046D01*
X1858Y2060D01*
X1538Y2060D01*
G37*
D02*
G36*
X1952Y2060D02*
X1952Y2044D01*
X1972Y2044D01*
X1972Y2046D01*
X1974Y2046D01*
X1974Y2048D01*
X1976Y2048D01*
X1976Y2050D01*
X1980Y2050D01*
X1980Y2052D01*
X1982Y2052D01*
X1982Y2054D01*
X1986Y2054D01*
X1986Y2056D01*
X1990Y2056D01*
X1990Y2058D01*
X1996Y2058D01*
X1996Y2060D01*
X1952Y2060D01*
G37*
D02*
G36*
X1952Y1982D02*
X1952Y1966D01*
X1972Y1966D01*
X1972Y1982D01*
X1952Y1982D01*
G37*
D02*
G36*
X1352Y1978D02*
X1352Y1966D01*
X1240Y1966D01*
X1240Y1710D01*
X1238Y1710D01*
X1238Y1700D01*
X1236Y1700D01*
X1236Y1696D01*
X1234Y1696D01*
X1234Y1694D01*
X1232Y1694D01*
X1232Y1690D01*
X1230Y1690D01*
X1230Y1688D01*
X1228Y1688D01*
X1228Y1686D01*
X1224Y1686D01*
X1224Y1684D01*
X1222Y1684D01*
X1222Y1682D01*
X1216Y1682D01*
X1216Y1680D01*
X1208Y1680D01*
X1208Y1678D01*
X1036Y1678D01*
X1036Y1676D01*
X1034Y1676D01*
X1034Y1674D01*
X1032Y1674D01*
X1032Y1672D01*
X1028Y1672D01*
X1028Y1670D01*
X1024Y1670D01*
X1024Y1668D01*
X1020Y1668D01*
X1020Y1666D01*
X1014Y1666D01*
X1014Y1664D01*
X1470Y1664D01*
X1470Y1978D01*
X1352Y1978D01*
G37*
D02*
G36*
X1538Y1978D02*
X1538Y1966D01*
X1858Y1966D01*
X1858Y1978D01*
X1538Y1978D01*
G37*
D02*
G36*
X1538Y1966D02*
X1538Y1964D01*
X1972Y1964D01*
X1972Y1966D01*
X1538Y1966D01*
G37*
D02*
G36*
X1538Y1966D02*
X1538Y1964D01*
X1972Y1964D01*
X1972Y1966D01*
X1538Y1966D01*
G37*
D02*
G36*
X1538Y1964D02*
X1538Y1854D01*
X1846Y1854D01*
X1846Y1772D01*
X1818Y1772D01*
X1818Y1752D01*
X1822Y1752D01*
X1822Y1750D01*
X1826Y1750D01*
X1826Y1748D01*
X1828Y1748D01*
X1828Y1746D01*
X1832Y1746D01*
X1832Y1744D01*
X1834Y1744D01*
X1834Y1742D01*
X1836Y1742D01*
X1836Y1738D01*
X1838Y1738D01*
X1838Y1736D01*
X1840Y1736D01*
X1840Y1734D01*
X1842Y1734D01*
X1842Y1730D01*
X1844Y1730D01*
X1844Y1724D01*
X1846Y1724D01*
X1846Y1704D01*
X1844Y1704D01*
X1844Y1700D01*
X1842Y1700D01*
X1842Y1696D01*
X1840Y1696D01*
X1840Y1564D01*
X2196Y1564D01*
X2196Y1566D01*
X2190Y1566D01*
X2190Y1568D01*
X2186Y1568D01*
X2186Y1570D01*
X2182Y1570D01*
X2182Y1572D01*
X2178Y1572D01*
X2178Y1574D01*
X2176Y1574D01*
X2176Y1576D01*
X2174Y1576D01*
X2174Y1578D01*
X1996Y1578D01*
X1996Y1580D01*
X1990Y1580D01*
X1990Y1582D01*
X1986Y1582D01*
X1986Y1584D01*
X1984Y1584D01*
X1984Y1586D01*
X1982Y1586D01*
X1982Y1588D01*
X1980Y1588D01*
X1980Y1590D01*
X1978Y1590D01*
X1978Y1592D01*
X1976Y1592D01*
X1976Y1594D01*
X1974Y1594D01*
X1974Y1598D01*
X1972Y1598D01*
X1972Y1604D01*
X1970Y1604D01*
X1970Y1956D01*
X1972Y1956D01*
X1972Y1964D01*
X1538Y1964D01*
G37*
D02*
G36*
X40Y1962D02*
X40Y1864D01*
X956Y1864D01*
X956Y1962D01*
X40Y1962D01*
G37*
D02*
G36*
X40Y1864D02*
X40Y1862D01*
X1172Y1862D01*
X1172Y1864D01*
X40Y1864D01*
G37*
D02*
G36*
X40Y1864D02*
X40Y1862D01*
X1172Y1862D01*
X1172Y1864D01*
X40Y1864D01*
G37*
D02*
G36*
X40Y1862D02*
X40Y1764D01*
X756Y1764D01*
X756Y1862D01*
X40Y1862D01*
G37*
D02*
G36*
X854Y1862D02*
X854Y1764D01*
X1172Y1764D01*
X1172Y1862D01*
X854Y1862D01*
G37*
D02*
G36*
X2038Y1862D02*
X2038Y1764D01*
X2156Y1764D01*
X2156Y1862D01*
X2038Y1862D01*
G37*
D02*
G36*
X1538Y1854D02*
X1538Y1760D01*
X1614Y1760D01*
X1614Y1758D01*
X1620Y1758D01*
X1620Y1756D01*
X1624Y1756D01*
X1624Y1754D01*
X1628Y1754D01*
X1628Y1752D01*
X1632Y1752D01*
X1632Y1750D01*
X1634Y1750D01*
X1634Y1748D01*
X1668Y1748D01*
X1668Y1746D01*
X1676Y1746D01*
X1676Y1744D01*
X1698Y1744D01*
X1698Y1752D01*
X1700Y1752D01*
X1700Y1756D01*
X1702Y1756D01*
X1702Y1760D01*
X1704Y1760D01*
X1704Y1762D01*
X1706Y1762D01*
X1706Y1764D01*
X1708Y1764D01*
X1708Y1766D01*
X1710Y1766D01*
X1710Y1768D01*
X1712Y1768D01*
X1712Y1770D01*
X1714Y1770D01*
X1714Y1772D01*
X1716Y1772D01*
X1716Y1774D01*
X1718Y1774D01*
X1718Y1776D01*
X1720Y1776D01*
X1720Y1778D01*
X1722Y1778D01*
X1722Y1780D01*
X1724Y1780D01*
X1724Y1782D01*
X1726Y1782D01*
X1726Y1784D01*
X1728Y1784D01*
X1728Y1786D01*
X1730Y1786D01*
X1730Y1788D01*
X1732Y1788D01*
X1732Y1790D01*
X1734Y1790D01*
X1734Y1792D01*
X1736Y1792D01*
X1736Y1794D01*
X1738Y1794D01*
X1738Y1796D01*
X1740Y1796D01*
X1740Y1798D01*
X1742Y1798D01*
X1742Y1800D01*
X1744Y1800D01*
X1744Y1802D01*
X1746Y1802D01*
X1746Y1804D01*
X1748Y1804D01*
X1748Y1806D01*
X1750Y1806D01*
X1750Y1808D01*
X1752Y1808D01*
X1752Y1810D01*
X1754Y1810D01*
X1754Y1812D01*
X1756Y1812D01*
X1756Y1814D01*
X1758Y1814D01*
X1758Y1816D01*
X1760Y1816D01*
X1760Y1818D01*
X1762Y1818D01*
X1762Y1820D01*
X1764Y1820D01*
X1764Y1854D01*
X1538Y1854D01*
G37*
D02*
G36*
X40Y1764D02*
X40Y1762D01*
X1172Y1762D01*
X1172Y1764D01*
X40Y1764D01*
G37*
D02*
G36*
X40Y1764D02*
X40Y1762D01*
X1172Y1762D01*
X1172Y1764D01*
X40Y1764D01*
G37*
D02*
G36*
X2038Y1764D02*
X2038Y1762D01*
X2966Y1762D01*
X2966Y1764D01*
X2038Y1764D01*
G37*
D02*
G36*
X2038Y1764D02*
X2038Y1762D01*
X2966Y1762D01*
X2966Y1764D01*
X2038Y1764D01*
G37*
D02*
G36*
X40Y1762D02*
X40Y1758D01*
X514Y1758D01*
X514Y1756D01*
X520Y1756D01*
X520Y1754D01*
X524Y1754D01*
X524Y1752D01*
X526Y1752D01*
X526Y1750D01*
X530Y1750D01*
X530Y1748D01*
X532Y1748D01*
X532Y1746D01*
X534Y1746D01*
X534Y1744D01*
X536Y1744D01*
X536Y1742D01*
X538Y1742D01*
X538Y1740D01*
X540Y1740D01*
X540Y1738D01*
X542Y1738D01*
X542Y1734D01*
X544Y1734D01*
X544Y1732D01*
X546Y1732D01*
X546Y1728D01*
X548Y1728D01*
X548Y1722D01*
X550Y1722D01*
X550Y1704D01*
X548Y1704D01*
X548Y1698D01*
X546Y1698D01*
X546Y1694D01*
X544Y1694D01*
X544Y1692D01*
X542Y1692D01*
X542Y1688D01*
X540Y1688D01*
X540Y1686D01*
X538Y1686D01*
X538Y1684D01*
X536Y1684D01*
X536Y1682D01*
X534Y1682D01*
X534Y1680D01*
X532Y1680D01*
X532Y1678D01*
X530Y1678D01*
X530Y1676D01*
X526Y1676D01*
X526Y1674D01*
X524Y1674D01*
X524Y1664D01*
X996Y1664D01*
X996Y1666D01*
X990Y1666D01*
X990Y1668D01*
X986Y1668D01*
X986Y1670D01*
X982Y1670D01*
X982Y1672D01*
X978Y1672D01*
X978Y1674D01*
X976Y1674D01*
X976Y1676D01*
X974Y1676D01*
X974Y1678D01*
X972Y1678D01*
X972Y1680D01*
X970Y1680D01*
X970Y1682D01*
X968Y1682D01*
X968Y1684D01*
X966Y1684D01*
X966Y1688D01*
X964Y1688D01*
X964Y1690D01*
X962Y1690D01*
X962Y1694D01*
X960Y1694D01*
X960Y1700D01*
X958Y1700D01*
X958Y1706D01*
X956Y1706D01*
X956Y1720D01*
X958Y1720D01*
X958Y1726D01*
X960Y1726D01*
X960Y1732D01*
X962Y1732D01*
X962Y1736D01*
X964Y1736D01*
X964Y1738D01*
X966Y1738D01*
X966Y1742D01*
X968Y1742D01*
X968Y1744D01*
X970Y1744D01*
X970Y1746D01*
X972Y1746D01*
X972Y1748D01*
X974Y1748D01*
X974Y1750D01*
X976Y1750D01*
X976Y1752D01*
X980Y1752D01*
X980Y1754D01*
X982Y1754D01*
X982Y1756D01*
X986Y1756D01*
X986Y1758D01*
X992Y1758D01*
X992Y1760D01*
X998Y1760D01*
X998Y1762D01*
X40Y1762D01*
G37*
D02*
G36*
X1012Y1762D02*
X1012Y1760D01*
X1020Y1760D01*
X1020Y1758D01*
X1024Y1758D01*
X1024Y1756D01*
X1028Y1756D01*
X1028Y1754D01*
X1030Y1754D01*
X1030Y1752D01*
X1034Y1752D01*
X1034Y1750D01*
X1036Y1750D01*
X1036Y1748D01*
X1038Y1748D01*
X1038Y1746D01*
X1172Y1746D01*
X1172Y1762D01*
X1012Y1762D01*
G37*
D02*
G36*
X2038Y1762D02*
X2038Y1664D01*
X2356Y1664D01*
X2356Y1762D01*
X2038Y1762D01*
G37*
D02*
G36*
X2454Y1762D02*
X2454Y1664D01*
X2966Y1664D01*
X2966Y1762D01*
X2454Y1762D01*
G37*
D02*
G36*
X1538Y1760D02*
X1538Y1666D01*
X1594Y1666D01*
X1594Y1668D01*
X1590Y1668D01*
X1590Y1670D01*
X1586Y1670D01*
X1586Y1672D01*
X1582Y1672D01*
X1582Y1674D01*
X1578Y1674D01*
X1578Y1676D01*
X1576Y1676D01*
X1576Y1678D01*
X1574Y1678D01*
X1574Y1680D01*
X1572Y1680D01*
X1572Y1682D01*
X1570Y1682D01*
X1570Y1684D01*
X1568Y1684D01*
X1568Y1686D01*
X1566Y1686D01*
X1566Y1690D01*
X1564Y1690D01*
X1564Y1694D01*
X1562Y1694D01*
X1562Y1698D01*
X1560Y1698D01*
X1560Y1704D01*
X1558Y1704D01*
X1558Y1722D01*
X1560Y1722D01*
X1560Y1728D01*
X1562Y1728D01*
X1562Y1732D01*
X1564Y1732D01*
X1564Y1736D01*
X1566Y1736D01*
X1566Y1738D01*
X1568Y1738D01*
X1568Y1742D01*
X1570Y1742D01*
X1570Y1744D01*
X1572Y1744D01*
X1572Y1746D01*
X1574Y1746D01*
X1574Y1748D01*
X1576Y1748D01*
X1576Y1750D01*
X1580Y1750D01*
X1580Y1752D01*
X1582Y1752D01*
X1582Y1754D01*
X1586Y1754D01*
X1586Y1756D01*
X1590Y1756D01*
X1590Y1758D01*
X1596Y1758D01*
X1596Y1760D01*
X1538Y1760D01*
G37*
D02*
G36*
X40Y1758D02*
X40Y1748D01*
X214Y1748D01*
X214Y1746D01*
X240Y1746D01*
X240Y1748D01*
X480Y1748D01*
X480Y1750D01*
X484Y1750D01*
X484Y1752D01*
X488Y1752D01*
X488Y1754D01*
X492Y1754D01*
X492Y1756D01*
X498Y1756D01*
X498Y1758D01*
X40Y1758D01*
G37*
D02*
G36*
X40Y1748D02*
X40Y746D01*
X510Y746D01*
X510Y744D01*
X518Y744D01*
X518Y742D01*
X522Y742D01*
X522Y740D01*
X526Y740D01*
X526Y738D01*
X528Y738D01*
X528Y736D01*
X530Y736D01*
X530Y734D01*
X532Y734D01*
X532Y732D01*
X534Y732D01*
X534Y728D01*
X536Y728D01*
X536Y724D01*
X538Y724D01*
X538Y718D01*
X540Y718D01*
X540Y704D01*
X538Y704D01*
X538Y676D01*
X540Y676D01*
X540Y562D01*
X1012Y562D01*
X1012Y560D01*
X1020Y560D01*
X1020Y558D01*
X1024Y558D01*
X1024Y556D01*
X1028Y556D01*
X1028Y554D01*
X1030Y554D01*
X1030Y552D01*
X1034Y552D01*
X1034Y550D01*
X1036Y550D01*
X1036Y548D01*
X1038Y548D01*
X1038Y546D01*
X1040Y546D01*
X1040Y544D01*
X1042Y544D01*
X1042Y542D01*
X1044Y542D01*
X1044Y540D01*
X1046Y540D01*
X1046Y536D01*
X1048Y536D01*
X1048Y532D01*
X1050Y532D01*
X1050Y528D01*
X1052Y528D01*
X1052Y522D01*
X1054Y522D01*
X1054Y504D01*
X1052Y504D01*
X1052Y498D01*
X1050Y498D01*
X1050Y494D01*
X1048Y494D01*
X1048Y490D01*
X1046Y490D01*
X1046Y486D01*
X1044Y486D01*
X1044Y484D01*
X1042Y484D01*
X1042Y482D01*
X1040Y482D01*
X1040Y252D01*
X1038Y252D01*
X1038Y242D01*
X1036Y242D01*
X1036Y238D01*
X1034Y238D01*
X1034Y234D01*
X1032Y234D01*
X1032Y232D01*
X1030Y232D01*
X1030Y230D01*
X1028Y230D01*
X1028Y228D01*
X1026Y228D01*
X1026Y226D01*
X1022Y226D01*
X1022Y224D01*
X1018Y224D01*
X1018Y222D01*
X1012Y222D01*
X1012Y220D01*
X998Y220D01*
X998Y204D01*
X996Y204D01*
X996Y198D01*
X994Y198D01*
X994Y196D01*
X992Y196D01*
X992Y192D01*
X990Y192D01*
X990Y190D01*
X988Y190D01*
X988Y188D01*
X986Y188D01*
X986Y186D01*
X984Y186D01*
X984Y184D01*
X980Y184D01*
X980Y182D01*
X976Y182D01*
X976Y180D01*
X966Y180D01*
X966Y178D01*
X740Y178D01*
X740Y148D01*
X738Y148D01*
X738Y124D01*
X740Y124D01*
X740Y106D01*
X738Y106D01*
X738Y100D01*
X736Y100D01*
X736Y96D01*
X734Y96D01*
X734Y94D01*
X732Y94D01*
X732Y92D01*
X730Y92D01*
X730Y90D01*
X728Y90D01*
X728Y88D01*
X726Y88D01*
X726Y86D01*
X722Y86D01*
X722Y84D01*
X718Y84D01*
X718Y82D01*
X708Y82D01*
X708Y80D01*
X1202Y80D01*
X1202Y82D01*
X1194Y82D01*
X1194Y84D01*
X1188Y84D01*
X1188Y86D01*
X1186Y86D01*
X1186Y88D01*
X1184Y88D01*
X1184Y90D01*
X1180Y90D01*
X1180Y94D01*
X1178Y94D01*
X1178Y96D01*
X1176Y96D01*
X1176Y100D01*
X1174Y100D01*
X1174Y104D01*
X1172Y104D01*
X1172Y522D01*
X1174Y522D01*
X1174Y526D01*
X1176Y526D01*
X1176Y530D01*
X1178Y530D01*
X1178Y532D01*
X1180Y532D01*
X1180Y534D01*
X1182Y534D01*
X1182Y536D01*
X1184Y536D01*
X1184Y538D01*
X1186Y538D01*
X1186Y540D01*
X1190Y540D01*
X1190Y542D01*
X1194Y542D01*
X1194Y544D01*
X1244Y544D01*
X1244Y546D01*
X1430Y546D01*
X1430Y566D01*
X1428Y566D01*
X1428Y568D01*
X1426Y568D01*
X1426Y572D01*
X1424Y572D01*
X1424Y574D01*
X1422Y574D01*
X1422Y578D01*
X1420Y578D01*
X1420Y580D01*
X1418Y580D01*
X1418Y584D01*
X1416Y584D01*
X1416Y586D01*
X1414Y586D01*
X1414Y590D01*
X1412Y590D01*
X1412Y592D01*
X1410Y592D01*
X1410Y596D01*
X1408Y596D01*
X1408Y598D01*
X1406Y598D01*
X1406Y602D01*
X1404Y602D01*
X1404Y604D01*
X1402Y604D01*
X1402Y606D01*
X1400Y606D01*
X1400Y610D01*
X1398Y610D01*
X1398Y612D01*
X1396Y612D01*
X1396Y616D01*
X1394Y616D01*
X1394Y618D01*
X1392Y618D01*
X1392Y622D01*
X1390Y622D01*
X1390Y624D01*
X1388Y624D01*
X1388Y628D01*
X1386Y628D01*
X1386Y630D01*
X1384Y630D01*
X1384Y634D01*
X1382Y634D01*
X1382Y636D01*
X1380Y636D01*
X1380Y640D01*
X1378Y640D01*
X1378Y642D01*
X1376Y642D01*
X1376Y646D01*
X1374Y646D01*
X1374Y648D01*
X1372Y648D01*
X1372Y652D01*
X1370Y652D01*
X1370Y654D01*
X1368Y654D01*
X1368Y658D01*
X1366Y658D01*
X1366Y660D01*
X1364Y660D01*
X1364Y664D01*
X1362Y664D01*
X1362Y666D01*
X1360Y666D01*
X1360Y670D01*
X1358Y670D01*
X1358Y672D01*
X1356Y672D01*
X1356Y676D01*
X1354Y676D01*
X1354Y678D01*
X1352Y678D01*
X1352Y682D01*
X1350Y682D01*
X1350Y684D01*
X1348Y684D01*
X1348Y688D01*
X1346Y688D01*
X1346Y690D01*
X1344Y690D01*
X1344Y694D01*
X1342Y694D01*
X1342Y696D01*
X1340Y696D01*
X1340Y700D01*
X1338Y700D01*
X1338Y702D01*
X1336Y702D01*
X1336Y706D01*
X1334Y706D01*
X1334Y708D01*
X1332Y708D01*
X1332Y712D01*
X1330Y712D01*
X1330Y714D01*
X1328Y714D01*
X1328Y718D01*
X1326Y718D01*
X1326Y720D01*
X1324Y720D01*
X1324Y724D01*
X1322Y724D01*
X1322Y726D01*
X1320Y726D01*
X1320Y730D01*
X1318Y730D01*
X1318Y732D01*
X1316Y732D01*
X1316Y734D01*
X1314Y734D01*
X1314Y738D01*
X1312Y738D01*
X1312Y740D01*
X1310Y740D01*
X1310Y744D01*
X1308Y744D01*
X1308Y746D01*
X1306Y746D01*
X1306Y750D01*
X1304Y750D01*
X1304Y752D01*
X1302Y752D01*
X1302Y756D01*
X1300Y756D01*
X1300Y758D01*
X1298Y758D01*
X1298Y762D01*
X1296Y762D01*
X1296Y766D01*
X1294Y766D01*
X1294Y772D01*
X1292Y772D01*
X1292Y780D01*
X200Y780D01*
X200Y782D01*
X194Y782D01*
X194Y784D01*
X190Y784D01*
X190Y786D01*
X186Y786D01*
X186Y788D01*
X184Y788D01*
X184Y790D01*
X182Y790D01*
X182Y792D01*
X180Y792D01*
X180Y796D01*
X178Y796D01*
X178Y800D01*
X176Y800D01*
X176Y804D01*
X174Y804D01*
X174Y1724D01*
X176Y1724D01*
X176Y1728D01*
X178Y1728D01*
X178Y1732D01*
X180Y1732D01*
X180Y1734D01*
X182Y1734D01*
X182Y1738D01*
X186Y1738D01*
X186Y1740D01*
X188Y1740D01*
X188Y1742D01*
X190Y1742D01*
X190Y1744D01*
X194Y1744D01*
X194Y1746D01*
X202Y1746D01*
X202Y1748D01*
X40Y1748D01*
G37*
D02*
G36*
X1698Y1710D02*
X1698Y1706D01*
X1724Y1706D01*
X1724Y1708D01*
X1718Y1708D01*
X1718Y1710D01*
X1698Y1710D01*
G37*
D02*
G36*
X1744Y1710D02*
X1744Y1708D01*
X1738Y1708D01*
X1738Y1706D01*
X1764Y1706D01*
X1764Y1710D01*
X1744Y1710D01*
G37*
D02*
G36*
X1696Y1706D02*
X1696Y1704D01*
X1766Y1704D01*
X1766Y1706D01*
X1696Y1706D01*
G37*
D02*
G36*
X1696Y1706D02*
X1696Y1704D01*
X1766Y1704D01*
X1766Y1706D01*
X1696Y1706D01*
G37*
D02*
G36*
X1696Y1704D02*
X1696Y1700D01*
X1694Y1700D01*
X1694Y1696D01*
X1692Y1696D01*
X1692Y1692D01*
X1690Y1692D01*
X1690Y1690D01*
X1688Y1690D01*
X1688Y1688D01*
X1686Y1688D01*
X1686Y1686D01*
X1682Y1686D01*
X1682Y1684D01*
X1680Y1684D01*
X1680Y1682D01*
X1674Y1682D01*
X1674Y1680D01*
X1636Y1680D01*
X1636Y1678D01*
X1634Y1678D01*
X1634Y1676D01*
X1632Y1676D01*
X1632Y1674D01*
X1628Y1674D01*
X1628Y1672D01*
X1626Y1672D01*
X1626Y1670D01*
X1622Y1670D01*
X1622Y1668D01*
X1616Y1668D01*
X1616Y1666D01*
X1772Y1666D01*
X1772Y1694D01*
X1770Y1694D01*
X1770Y1696D01*
X1768Y1696D01*
X1768Y1700D01*
X1766Y1700D01*
X1766Y1704D01*
X1696Y1704D01*
G37*
D02*
G36*
X1538Y1666D02*
X1538Y1664D01*
X1772Y1664D01*
X1772Y1666D01*
X1538Y1666D01*
G37*
D02*
G36*
X1538Y1666D02*
X1538Y1664D01*
X1772Y1664D01*
X1772Y1666D01*
X1538Y1666D01*
G37*
D02*
G36*
X524Y1664D02*
X524Y1662D01*
X1470Y1662D01*
X1470Y1664D01*
X524Y1664D01*
G37*
D02*
G36*
X524Y1664D02*
X524Y1662D01*
X1470Y1662D01*
X1470Y1664D01*
X524Y1664D01*
G37*
D02*
G36*
X1538Y1664D02*
X1538Y1630D01*
X1540Y1630D01*
X1540Y1560D01*
X1714Y1560D01*
X1714Y1558D01*
X1720Y1558D01*
X1720Y1556D01*
X1724Y1556D01*
X1724Y1554D01*
X1728Y1554D01*
X1728Y1552D01*
X1732Y1552D01*
X1732Y1550D01*
X1734Y1550D01*
X1734Y1548D01*
X1736Y1548D01*
X1736Y1546D01*
X1772Y1546D01*
X1772Y1664D01*
X1538Y1664D01*
G37*
D02*
G36*
X2038Y1664D02*
X2038Y1662D01*
X2966Y1662D01*
X2966Y1664D01*
X2038Y1664D01*
G37*
D02*
G36*
X2038Y1664D02*
X2038Y1662D01*
X2966Y1662D01*
X2966Y1664D01*
X2038Y1664D01*
G37*
D02*
G36*
X524Y1662D02*
X524Y1652D01*
X526Y1652D01*
X526Y1650D01*
X530Y1650D01*
X530Y1648D01*
X532Y1648D01*
X532Y1646D01*
X772Y1646D01*
X772Y1648D01*
X774Y1648D01*
X774Y1650D01*
X776Y1650D01*
X776Y1652D01*
X780Y1652D01*
X780Y1654D01*
X782Y1654D01*
X782Y1656D01*
X786Y1656D01*
X786Y1658D01*
X792Y1658D01*
X792Y1660D01*
X798Y1660D01*
X798Y1662D01*
X524Y1662D01*
G37*
D02*
G36*
X812Y1662D02*
X812Y1660D01*
X820Y1660D01*
X820Y1658D01*
X824Y1658D01*
X824Y1656D01*
X828Y1656D01*
X828Y1654D01*
X830Y1654D01*
X830Y1652D01*
X834Y1652D01*
X834Y1650D01*
X836Y1650D01*
X836Y1648D01*
X838Y1648D01*
X838Y1646D01*
X840Y1646D01*
X840Y1644D01*
X842Y1644D01*
X842Y1642D01*
X844Y1642D01*
X844Y1640D01*
X846Y1640D01*
X846Y1636D01*
X848Y1636D01*
X848Y1632D01*
X850Y1632D01*
X850Y1628D01*
X852Y1628D01*
X852Y1626D01*
X856Y1626D01*
X856Y1624D01*
X860Y1624D01*
X860Y1622D01*
X864Y1622D01*
X864Y1620D01*
X868Y1620D01*
X868Y1618D01*
X872Y1618D01*
X872Y1616D01*
X876Y1616D01*
X876Y1614D01*
X880Y1614D01*
X880Y1612D01*
X884Y1612D01*
X884Y1610D01*
X888Y1610D01*
X888Y1608D01*
X892Y1608D01*
X892Y1606D01*
X896Y1606D01*
X896Y1604D01*
X900Y1604D01*
X900Y1602D01*
X904Y1602D01*
X904Y1600D01*
X908Y1600D01*
X908Y1598D01*
X912Y1598D01*
X912Y1596D01*
X916Y1596D01*
X916Y1594D01*
X920Y1594D01*
X920Y1592D01*
X924Y1592D01*
X924Y1590D01*
X928Y1590D01*
X928Y1588D01*
X932Y1588D01*
X932Y1586D01*
X936Y1586D01*
X936Y1584D01*
X940Y1584D01*
X940Y1582D01*
X944Y1582D01*
X944Y1580D01*
X948Y1580D01*
X948Y1578D01*
X952Y1578D01*
X952Y1576D01*
X956Y1576D01*
X956Y1574D01*
X960Y1574D01*
X960Y1572D01*
X964Y1572D01*
X964Y1570D01*
X968Y1570D01*
X968Y1568D01*
X972Y1568D01*
X972Y1566D01*
X976Y1566D01*
X976Y1564D01*
X980Y1564D01*
X980Y1562D01*
X1212Y1562D01*
X1212Y1560D01*
X1452Y1560D01*
X1452Y1466D01*
X1436Y1466D01*
X1436Y1446D01*
X1438Y1446D01*
X1438Y1444D01*
X1440Y1444D01*
X1440Y1442D01*
X1442Y1442D01*
X1442Y1440D01*
X1444Y1440D01*
X1444Y1436D01*
X1446Y1436D01*
X1446Y1432D01*
X1448Y1432D01*
X1448Y1428D01*
X1450Y1428D01*
X1450Y1424D01*
X1452Y1424D01*
X1452Y1402D01*
X1450Y1402D01*
X1450Y1396D01*
X1448Y1396D01*
X1448Y1392D01*
X1446Y1392D01*
X1446Y1390D01*
X1444Y1390D01*
X1444Y1386D01*
X1442Y1386D01*
X1442Y1384D01*
X1440Y1384D01*
X1440Y1382D01*
X1438Y1382D01*
X1438Y1380D01*
X1436Y1380D01*
X1436Y1378D01*
X1434Y1378D01*
X1434Y1376D01*
X1432Y1376D01*
X1432Y1374D01*
X1428Y1374D01*
X1428Y1352D01*
X1432Y1352D01*
X1432Y1350D01*
X1434Y1350D01*
X1434Y1348D01*
X1436Y1348D01*
X1436Y1346D01*
X1438Y1346D01*
X1438Y1344D01*
X1440Y1344D01*
X1440Y1342D01*
X1442Y1342D01*
X1442Y1340D01*
X1444Y1340D01*
X1444Y1336D01*
X1446Y1336D01*
X1446Y1332D01*
X1448Y1332D01*
X1448Y1328D01*
X1450Y1328D01*
X1450Y1324D01*
X1452Y1324D01*
X1452Y1302D01*
X1450Y1302D01*
X1450Y1296D01*
X1448Y1296D01*
X1448Y1292D01*
X1446Y1292D01*
X1446Y1290D01*
X1444Y1290D01*
X1444Y1286D01*
X1442Y1286D01*
X1442Y1284D01*
X1440Y1284D01*
X1440Y1282D01*
X1438Y1282D01*
X1438Y1280D01*
X1436Y1280D01*
X1436Y1278D01*
X1434Y1278D01*
X1434Y1276D01*
X1432Y1276D01*
X1432Y1274D01*
X1428Y1274D01*
X1428Y1252D01*
X1432Y1252D01*
X1432Y1250D01*
X1434Y1250D01*
X1434Y1248D01*
X1436Y1248D01*
X1436Y1246D01*
X1438Y1246D01*
X1438Y1244D01*
X1440Y1244D01*
X1440Y1242D01*
X1442Y1242D01*
X1442Y1240D01*
X1444Y1240D01*
X1444Y1236D01*
X1446Y1236D01*
X1446Y1232D01*
X1448Y1232D01*
X1448Y1228D01*
X1450Y1228D01*
X1450Y1224D01*
X1452Y1224D01*
X1452Y1202D01*
X1450Y1202D01*
X1450Y1196D01*
X1448Y1196D01*
X1448Y1192D01*
X1446Y1192D01*
X1446Y1190D01*
X1444Y1190D01*
X1444Y1186D01*
X1442Y1186D01*
X1442Y1184D01*
X1440Y1184D01*
X1440Y1182D01*
X1438Y1182D01*
X1438Y1180D01*
X1436Y1180D01*
X1436Y1178D01*
X1434Y1178D01*
X1434Y1176D01*
X1432Y1176D01*
X1432Y1174D01*
X1428Y1174D01*
X1428Y1152D01*
X1432Y1152D01*
X1432Y1150D01*
X1434Y1150D01*
X1434Y1148D01*
X1436Y1148D01*
X1436Y1146D01*
X1438Y1146D01*
X1438Y1144D01*
X1440Y1144D01*
X1440Y1142D01*
X1442Y1142D01*
X1442Y1140D01*
X1444Y1140D01*
X1444Y1136D01*
X1446Y1136D01*
X1446Y1132D01*
X1448Y1132D01*
X1448Y1128D01*
X1450Y1128D01*
X1450Y1124D01*
X1452Y1124D01*
X1452Y1102D01*
X1450Y1102D01*
X1450Y1096D01*
X1448Y1096D01*
X1448Y1092D01*
X1446Y1092D01*
X1446Y1090D01*
X1444Y1090D01*
X1444Y1086D01*
X1442Y1086D01*
X1442Y1084D01*
X1440Y1084D01*
X1440Y1082D01*
X1438Y1082D01*
X1438Y1080D01*
X1436Y1080D01*
X1436Y1078D01*
X1434Y1078D01*
X1434Y1076D01*
X1432Y1076D01*
X1432Y1074D01*
X1428Y1074D01*
X1428Y1052D01*
X1432Y1052D01*
X1432Y1050D01*
X1434Y1050D01*
X1434Y1048D01*
X1436Y1048D01*
X1436Y1046D01*
X1438Y1046D01*
X1438Y1044D01*
X1440Y1044D01*
X1440Y1042D01*
X1442Y1042D01*
X1442Y1040D01*
X1444Y1040D01*
X1444Y1036D01*
X1446Y1036D01*
X1446Y1032D01*
X1448Y1032D01*
X1448Y1028D01*
X1450Y1028D01*
X1450Y1024D01*
X1452Y1024D01*
X1452Y1002D01*
X1450Y1002D01*
X1450Y996D01*
X1448Y996D01*
X1448Y992D01*
X1446Y992D01*
X1446Y990D01*
X1444Y990D01*
X1444Y986D01*
X1442Y986D01*
X1442Y984D01*
X1440Y984D01*
X1440Y982D01*
X1438Y982D01*
X1438Y980D01*
X1436Y980D01*
X1436Y978D01*
X1434Y978D01*
X1434Y976D01*
X1432Y976D01*
X1432Y974D01*
X1428Y974D01*
X1428Y952D01*
X1432Y952D01*
X1432Y950D01*
X1434Y950D01*
X1434Y948D01*
X1436Y948D01*
X1436Y946D01*
X1474Y946D01*
X1474Y1154D01*
X1472Y1154D01*
X1472Y1626D01*
X1470Y1626D01*
X1470Y1662D01*
X812Y1662D01*
G37*
D02*
G36*
X2038Y1662D02*
X2038Y1646D01*
X2172Y1646D01*
X2172Y1648D01*
X2174Y1648D01*
X2174Y1650D01*
X2176Y1650D01*
X2176Y1652D01*
X2180Y1652D01*
X2180Y1654D01*
X2182Y1654D01*
X2182Y1656D01*
X2186Y1656D01*
X2186Y1658D01*
X2192Y1658D01*
X2192Y1660D01*
X2198Y1660D01*
X2198Y1662D01*
X2038Y1662D01*
G37*
D02*
G36*
X2212Y1662D02*
X2212Y1660D01*
X2220Y1660D01*
X2220Y1658D01*
X2614Y1658D01*
X2614Y1656D01*
X2618Y1656D01*
X2618Y1654D01*
X2624Y1654D01*
X2624Y1652D01*
X2626Y1652D01*
X2626Y1650D01*
X2630Y1650D01*
X2630Y1648D01*
X2766Y1648D01*
X2766Y1646D01*
X2816Y1646D01*
X2816Y1644D01*
X2820Y1644D01*
X2820Y1642D01*
X2824Y1642D01*
X2824Y1640D01*
X2826Y1640D01*
X2826Y1638D01*
X2828Y1638D01*
X2828Y1636D01*
X2830Y1636D01*
X2830Y1634D01*
X2832Y1634D01*
X2832Y1630D01*
X2834Y1630D01*
X2834Y1626D01*
X2836Y1626D01*
X2836Y1620D01*
X2838Y1620D01*
X2838Y108D01*
X2836Y108D01*
X2836Y102D01*
X2834Y102D01*
X2834Y98D01*
X2832Y98D01*
X2832Y94D01*
X2830Y94D01*
X2830Y92D01*
X2828Y92D01*
X2828Y90D01*
X2826Y90D01*
X2826Y88D01*
X2824Y88D01*
X2824Y86D01*
X2820Y86D01*
X2820Y84D01*
X2816Y84D01*
X2816Y82D01*
X2806Y82D01*
X2806Y80D01*
X2966Y80D01*
X2966Y1662D01*
X2212Y1662D01*
G37*
D02*
G36*
X2224Y1658D02*
X2224Y1656D01*
X2228Y1656D01*
X2228Y1654D01*
X2230Y1654D01*
X2230Y1652D01*
X2234Y1652D01*
X2234Y1650D01*
X2236Y1650D01*
X2236Y1648D01*
X2238Y1648D01*
X2238Y1646D01*
X2240Y1646D01*
X2240Y1644D01*
X2242Y1644D01*
X2242Y1642D01*
X2244Y1642D01*
X2244Y1640D01*
X2246Y1640D01*
X2246Y1636D01*
X2248Y1636D01*
X2248Y1632D01*
X2250Y1632D01*
X2250Y1628D01*
X2252Y1628D01*
X2252Y1622D01*
X2254Y1622D01*
X2254Y1604D01*
X2252Y1604D01*
X2252Y1598D01*
X2250Y1598D01*
X2250Y1594D01*
X2248Y1594D01*
X2248Y1590D01*
X2246Y1590D01*
X2246Y1586D01*
X2244Y1586D01*
X2244Y1584D01*
X2242Y1584D01*
X2242Y1582D01*
X2240Y1582D01*
X2240Y1580D01*
X2238Y1580D01*
X2238Y1578D01*
X2236Y1578D01*
X2236Y1576D01*
X2234Y1576D01*
X2234Y1574D01*
X2232Y1574D01*
X2232Y1572D01*
X2228Y1572D01*
X2228Y1570D01*
X2224Y1570D01*
X2224Y1568D01*
X2220Y1568D01*
X2220Y1566D01*
X2214Y1566D01*
X2214Y1564D01*
X2588Y1564D01*
X2588Y1574D01*
X2584Y1574D01*
X2584Y1576D01*
X2580Y1576D01*
X2580Y1578D01*
X2578Y1578D01*
X2578Y1580D01*
X2576Y1580D01*
X2576Y1582D01*
X2574Y1582D01*
X2574Y1584D01*
X2572Y1584D01*
X2572Y1586D01*
X2570Y1586D01*
X2570Y1588D01*
X2568Y1588D01*
X2568Y1592D01*
X2566Y1592D01*
X2566Y1596D01*
X2564Y1596D01*
X2564Y1600D01*
X2562Y1600D01*
X2562Y1606D01*
X2560Y1606D01*
X2560Y1620D01*
X2562Y1620D01*
X2562Y1626D01*
X2564Y1626D01*
X2564Y1630D01*
X2566Y1630D01*
X2566Y1634D01*
X2568Y1634D01*
X2568Y1638D01*
X2570Y1638D01*
X2570Y1640D01*
X2572Y1640D01*
X2572Y1642D01*
X2574Y1642D01*
X2574Y1644D01*
X2576Y1644D01*
X2576Y1646D01*
X2578Y1646D01*
X2578Y1648D01*
X2580Y1648D01*
X2580Y1650D01*
X2584Y1650D01*
X2584Y1652D01*
X2588Y1652D01*
X2588Y1654D01*
X2592Y1654D01*
X2592Y1656D01*
X2598Y1656D01*
X2598Y1658D01*
X2224Y1658D01*
G37*
D02*
G36*
X1840Y1564D02*
X1840Y1562D01*
X2588Y1562D01*
X2588Y1564D01*
X1840Y1564D01*
G37*
D02*
G36*
X1840Y1564D02*
X1840Y1562D01*
X2588Y1562D01*
X2588Y1564D01*
X1840Y1564D01*
G37*
D02*
G36*
X1012Y1562D02*
X1012Y1560D01*
X1020Y1560D01*
X1020Y1558D01*
X1024Y1558D01*
X1024Y1556D01*
X1028Y1556D01*
X1028Y1554D01*
X1030Y1554D01*
X1030Y1552D01*
X1034Y1552D01*
X1034Y1550D01*
X1036Y1550D01*
X1036Y1548D01*
X1038Y1548D01*
X1038Y1546D01*
X1148Y1546D01*
X1148Y1548D01*
X1174Y1548D01*
X1174Y1550D01*
X1176Y1550D01*
X1176Y1552D01*
X1180Y1552D01*
X1180Y1554D01*
X1182Y1554D01*
X1182Y1556D01*
X1186Y1556D01*
X1186Y1558D01*
X1192Y1558D01*
X1192Y1560D01*
X1198Y1560D01*
X1198Y1562D01*
X1012Y1562D01*
G37*
D02*
G36*
X1840Y1562D02*
X1840Y1548D01*
X1838Y1548D01*
X1838Y1538D01*
X1836Y1538D01*
X1836Y1534D01*
X1834Y1534D01*
X1834Y1532D01*
X1832Y1532D01*
X1832Y1528D01*
X1830Y1528D01*
X1830Y1526D01*
X1828Y1526D01*
X1828Y1524D01*
X1824Y1524D01*
X1824Y1522D01*
X1822Y1522D01*
X1822Y1520D01*
X1816Y1520D01*
X1816Y1518D01*
X1808Y1518D01*
X1808Y1516D01*
X1800Y1516D01*
X1800Y1508D01*
X1798Y1508D01*
X1798Y1500D01*
X1796Y1500D01*
X1796Y1496D01*
X1794Y1496D01*
X1794Y1492D01*
X1792Y1492D01*
X1792Y1490D01*
X1790Y1490D01*
X1790Y1488D01*
X1788Y1488D01*
X1788Y1486D01*
X1784Y1486D01*
X1784Y1484D01*
X1782Y1484D01*
X1782Y1482D01*
X1778Y1482D01*
X1778Y1480D01*
X1768Y1480D01*
X1768Y1478D01*
X1734Y1478D01*
X1734Y1476D01*
X1732Y1476D01*
X1732Y1474D01*
X1728Y1474D01*
X1728Y1462D01*
X1912Y1462D01*
X1912Y1460D01*
X1920Y1460D01*
X1920Y1458D01*
X1924Y1458D01*
X1924Y1456D01*
X1928Y1456D01*
X1928Y1454D01*
X1930Y1454D01*
X1930Y1452D01*
X1934Y1452D01*
X1934Y1450D01*
X1936Y1450D01*
X1936Y1448D01*
X1938Y1448D01*
X1938Y1446D01*
X2172Y1446D01*
X2172Y1448D01*
X2174Y1448D01*
X2174Y1450D01*
X2176Y1450D01*
X2176Y1452D01*
X2180Y1452D01*
X2180Y1454D01*
X2182Y1454D01*
X2182Y1456D01*
X2186Y1456D01*
X2186Y1458D01*
X2192Y1458D01*
X2192Y1460D01*
X2198Y1460D01*
X2198Y1462D01*
X2230Y1462D01*
X2230Y1464D01*
X2234Y1464D01*
X2234Y1466D01*
X2238Y1466D01*
X2238Y1468D01*
X2242Y1468D01*
X2242Y1470D01*
X2246Y1470D01*
X2246Y1472D01*
X2250Y1472D01*
X2250Y1474D01*
X2254Y1474D01*
X2254Y1476D01*
X2258Y1476D01*
X2258Y1478D01*
X2262Y1478D01*
X2262Y1480D01*
X2266Y1480D01*
X2266Y1482D01*
X2270Y1482D01*
X2270Y1484D01*
X2274Y1484D01*
X2274Y1486D01*
X2278Y1486D01*
X2278Y1488D01*
X2282Y1488D01*
X2282Y1490D01*
X2286Y1490D01*
X2286Y1492D01*
X2290Y1492D01*
X2290Y1494D01*
X2294Y1494D01*
X2294Y1496D01*
X2298Y1496D01*
X2298Y1498D01*
X2302Y1498D01*
X2302Y1500D01*
X2306Y1500D01*
X2306Y1502D01*
X2310Y1502D01*
X2310Y1504D01*
X2314Y1504D01*
X2314Y1506D01*
X2318Y1506D01*
X2318Y1508D01*
X2322Y1508D01*
X2322Y1510D01*
X2326Y1510D01*
X2326Y1512D01*
X2330Y1512D01*
X2330Y1514D01*
X2334Y1514D01*
X2334Y1516D01*
X2338Y1516D01*
X2338Y1518D01*
X2342Y1518D01*
X2342Y1520D01*
X2346Y1520D01*
X2346Y1522D01*
X2350Y1522D01*
X2350Y1524D01*
X2354Y1524D01*
X2354Y1526D01*
X2358Y1526D01*
X2358Y1528D01*
X2360Y1528D01*
X2360Y1532D01*
X2362Y1532D01*
X2362Y1536D01*
X2364Y1536D01*
X2364Y1538D01*
X2366Y1538D01*
X2366Y1542D01*
X2368Y1542D01*
X2368Y1544D01*
X2370Y1544D01*
X2370Y1546D01*
X2372Y1546D01*
X2372Y1548D01*
X2374Y1548D01*
X2374Y1550D01*
X2376Y1550D01*
X2376Y1552D01*
X2380Y1552D01*
X2380Y1554D01*
X2382Y1554D01*
X2382Y1556D01*
X2386Y1556D01*
X2386Y1558D01*
X2392Y1558D01*
X2392Y1560D01*
X2398Y1560D01*
X2398Y1562D01*
X1840Y1562D01*
G37*
D02*
G36*
X2412Y1562D02*
X2412Y1560D01*
X2420Y1560D01*
X2420Y1558D01*
X2424Y1558D01*
X2424Y1556D01*
X2428Y1556D01*
X2428Y1554D01*
X2430Y1554D01*
X2430Y1552D01*
X2434Y1552D01*
X2434Y1550D01*
X2436Y1550D01*
X2436Y1548D01*
X2438Y1548D01*
X2438Y1546D01*
X2578Y1546D01*
X2578Y1548D01*
X2580Y1548D01*
X2580Y1550D01*
X2584Y1550D01*
X2584Y1552D01*
X2588Y1552D01*
X2588Y1562D01*
X2412Y1562D01*
G37*
D02*
G36*
X1220Y1560D02*
X1220Y1558D01*
X1224Y1558D01*
X1224Y1556D01*
X1228Y1556D01*
X1228Y1554D01*
X1230Y1554D01*
X1230Y1552D01*
X1234Y1552D01*
X1234Y1550D01*
X1236Y1550D01*
X1236Y1548D01*
X1262Y1548D01*
X1262Y1546D01*
X1272Y1546D01*
X1272Y1544D01*
X1278Y1544D01*
X1278Y1542D01*
X1280Y1542D01*
X1280Y1540D01*
X1284Y1540D01*
X1284Y1538D01*
X1286Y1538D01*
X1286Y1536D01*
X1288Y1536D01*
X1288Y1534D01*
X1290Y1534D01*
X1290Y1530D01*
X1292Y1530D01*
X1292Y1526D01*
X1312Y1526D01*
X1312Y1530D01*
X1314Y1530D01*
X1314Y1532D01*
X1316Y1532D01*
X1316Y1536D01*
X1318Y1536D01*
X1318Y1538D01*
X1320Y1538D01*
X1320Y1540D01*
X1324Y1540D01*
X1324Y1542D01*
X1326Y1542D01*
X1326Y1544D01*
X1332Y1544D01*
X1332Y1546D01*
X1342Y1546D01*
X1342Y1548D01*
X1358Y1548D01*
X1358Y1560D01*
X1220Y1560D01*
G37*
D02*
G36*
X1540Y1560D02*
X1540Y1158D01*
X1542Y1158D01*
X1542Y904D01*
X1540Y904D01*
X1540Y878D01*
X1542Y878D01*
X1542Y764D01*
X1540Y764D01*
X1540Y562D01*
X1572Y562D01*
X1572Y1482D01*
X1574Y1482D01*
X1574Y1486D01*
X1576Y1486D01*
X1576Y1490D01*
X1578Y1490D01*
X1578Y1492D01*
X1580Y1492D01*
X1580Y1496D01*
X1582Y1496D01*
X1582Y1498D01*
X1586Y1498D01*
X1586Y1500D01*
X1588Y1500D01*
X1588Y1502D01*
X1592Y1502D01*
X1592Y1504D01*
X1600Y1504D01*
X1600Y1506D01*
X1610Y1506D01*
X1610Y1514D01*
X1612Y1514D01*
X1612Y1524D01*
X1614Y1524D01*
X1614Y1528D01*
X1616Y1528D01*
X1616Y1532D01*
X1618Y1532D01*
X1618Y1534D01*
X1620Y1534D01*
X1620Y1536D01*
X1622Y1536D01*
X1622Y1538D01*
X1624Y1538D01*
X1624Y1540D01*
X1626Y1540D01*
X1626Y1542D01*
X1630Y1542D01*
X1630Y1544D01*
X1634Y1544D01*
X1634Y1546D01*
X1674Y1546D01*
X1674Y1548D01*
X1676Y1548D01*
X1676Y1550D01*
X1680Y1550D01*
X1680Y1552D01*
X1682Y1552D01*
X1682Y1554D01*
X1686Y1554D01*
X1686Y1556D01*
X1690Y1556D01*
X1690Y1558D01*
X1696Y1558D01*
X1696Y1560D01*
X1540Y1560D01*
G37*
D02*
G36*
X1728Y1462D02*
X1728Y1452D01*
X1732Y1452D01*
X1732Y1450D01*
X1734Y1450D01*
X1734Y1448D01*
X1736Y1448D01*
X1736Y1446D01*
X1872Y1446D01*
X1872Y1448D01*
X1874Y1448D01*
X1874Y1450D01*
X1876Y1450D01*
X1876Y1452D01*
X1880Y1452D01*
X1880Y1454D01*
X1882Y1454D01*
X1882Y1456D01*
X1886Y1456D01*
X1886Y1458D01*
X1892Y1458D01*
X1892Y1460D01*
X1898Y1460D01*
X1898Y1462D01*
X1728Y1462D01*
G37*
D02*
G36*
X40Y746D02*
X40Y80D01*
X102Y80D01*
X102Y82D01*
X94Y82D01*
X94Y84D01*
X88Y84D01*
X88Y86D01*
X86Y86D01*
X86Y88D01*
X82Y88D01*
X82Y90D01*
X80Y90D01*
X80Y94D01*
X78Y94D01*
X78Y96D01*
X76Y96D01*
X76Y98D01*
X74Y98D01*
X74Y104D01*
X72Y104D01*
X72Y114D01*
X70Y114D01*
X70Y712D01*
X72Y712D01*
X72Y722D01*
X74Y722D01*
X74Y728D01*
X76Y728D01*
X76Y730D01*
X78Y730D01*
X78Y734D01*
X80Y734D01*
X80Y736D01*
X82Y736D01*
X82Y738D01*
X86Y738D01*
X86Y740D01*
X88Y740D01*
X88Y742D01*
X92Y742D01*
X92Y744D01*
X100Y744D01*
X100Y746D01*
X40Y746D01*
G37*
D02*
G36*
X540Y562D02*
X540Y544D01*
X542Y544D01*
X542Y542D01*
X544Y542D01*
X544Y540D01*
X546Y540D01*
X546Y536D01*
X548Y536D01*
X548Y532D01*
X550Y532D01*
X550Y528D01*
X552Y528D01*
X552Y522D01*
X554Y522D01*
X554Y504D01*
X552Y504D01*
X552Y498D01*
X550Y498D01*
X550Y494D01*
X548Y494D01*
X548Y490D01*
X546Y490D01*
X546Y486D01*
X544Y486D01*
X544Y484D01*
X542Y484D01*
X542Y482D01*
X540Y482D01*
X540Y480D01*
X538Y480D01*
X538Y478D01*
X536Y478D01*
X536Y476D01*
X534Y476D01*
X534Y474D01*
X532Y474D01*
X532Y472D01*
X528Y472D01*
X528Y470D01*
X524Y470D01*
X524Y468D01*
X520Y468D01*
X520Y466D01*
X514Y466D01*
X514Y464D01*
X572Y464D01*
X572Y482D01*
X574Y482D01*
X574Y486D01*
X576Y486D01*
X576Y490D01*
X578Y490D01*
X578Y492D01*
X580Y492D01*
X580Y496D01*
X582Y496D01*
X582Y498D01*
X586Y498D01*
X586Y500D01*
X588Y500D01*
X588Y502D01*
X592Y502D01*
X592Y504D01*
X600Y504D01*
X600Y506D01*
X612Y506D01*
X612Y518D01*
X614Y518D01*
X614Y526D01*
X616Y526D01*
X616Y530D01*
X618Y530D01*
X618Y532D01*
X620Y532D01*
X620Y536D01*
X622Y536D01*
X622Y538D01*
X626Y538D01*
X626Y540D01*
X628Y540D01*
X628Y542D01*
X632Y542D01*
X632Y544D01*
X636Y544D01*
X636Y546D01*
X872Y546D01*
X872Y548D01*
X874Y548D01*
X874Y550D01*
X876Y550D01*
X876Y552D01*
X880Y552D01*
X880Y554D01*
X882Y554D01*
X882Y556D01*
X886Y556D01*
X886Y558D01*
X892Y558D01*
X892Y560D01*
X898Y560D01*
X898Y562D01*
X540Y562D01*
G37*
D02*
G36*
X912Y562D02*
X912Y560D01*
X920Y560D01*
X920Y558D01*
X924Y558D01*
X924Y556D01*
X928Y556D01*
X928Y554D01*
X930Y554D01*
X930Y552D01*
X934Y552D01*
X934Y550D01*
X936Y550D01*
X936Y548D01*
X938Y548D01*
X938Y546D01*
X940Y546D01*
X940Y544D01*
X942Y544D01*
X942Y542D01*
X944Y542D01*
X944Y540D01*
X946Y540D01*
X946Y538D01*
X966Y538D01*
X966Y542D01*
X968Y542D01*
X968Y544D01*
X970Y544D01*
X970Y546D01*
X972Y546D01*
X972Y548D01*
X974Y548D01*
X974Y550D01*
X976Y550D01*
X976Y552D01*
X980Y552D01*
X980Y554D01*
X982Y554D01*
X982Y556D01*
X986Y556D01*
X986Y558D01*
X992Y558D01*
X992Y560D01*
X998Y560D01*
X998Y562D01*
X912Y562D01*
G37*
D02*
G36*
X446Y488D02*
X446Y486D01*
X444Y486D01*
X444Y484D01*
X442Y484D01*
X442Y482D01*
X440Y482D01*
X440Y464D01*
X496Y464D01*
X496Y466D01*
X490Y466D01*
X490Y468D01*
X486Y468D01*
X486Y470D01*
X482Y470D01*
X482Y472D01*
X478Y472D01*
X478Y474D01*
X476Y474D01*
X476Y476D01*
X474Y476D01*
X474Y478D01*
X472Y478D01*
X472Y480D01*
X470Y480D01*
X470Y482D01*
X468Y482D01*
X468Y484D01*
X466Y484D01*
X466Y488D01*
X446Y488D01*
G37*
D02*
G36*
X440Y464D02*
X440Y462D01*
X572Y462D01*
X572Y464D01*
X440Y464D01*
G37*
D02*
G36*
X440Y464D02*
X440Y462D01*
X572Y462D01*
X572Y464D01*
X440Y464D01*
G37*
D02*
G36*
X440Y462D02*
X440Y246D01*
X572Y246D01*
X572Y462D01*
X440Y462D01*
G37*
D02*
G36*
X40Y80D02*
X40Y78D01*
X2966Y78D01*
X2966Y80D01*
X40Y80D01*
G37*
D02*
G36*
X40Y80D02*
X40Y78D01*
X2966Y78D01*
X2966Y80D01*
X40Y80D01*
G37*
D02*
G36*
X40Y80D02*
X40Y78D01*
X2966Y78D01*
X2966Y80D01*
X40Y80D01*
G37*
D02*
G36*
X40Y78D02*
X40Y40D01*
X2966Y40D01*
X2966Y78D01*
X40Y78D01*
G37*
D02*
G36*
X1734Y1278D02*
X1734Y1276D01*
X1732Y1276D01*
X1732Y1274D01*
X1728Y1274D01*
X1728Y1264D01*
X1896Y1264D01*
X1896Y1266D01*
X1890Y1266D01*
X1890Y1268D01*
X1886Y1268D01*
X1886Y1270D01*
X1882Y1270D01*
X1882Y1272D01*
X1878Y1272D01*
X1878Y1274D01*
X1876Y1274D01*
X1876Y1276D01*
X1874Y1276D01*
X1874Y1278D01*
X1734Y1278D01*
G37*
D02*
G36*
X1936Y1278D02*
X1936Y1276D01*
X1934Y1276D01*
X1934Y1274D01*
X1932Y1274D01*
X1932Y1272D01*
X1928Y1272D01*
X1928Y1270D01*
X1924Y1270D01*
X1924Y1268D01*
X1920Y1268D01*
X1920Y1266D01*
X1914Y1266D01*
X1914Y1264D01*
X2396Y1264D01*
X2396Y1266D01*
X2390Y1266D01*
X2390Y1268D01*
X2386Y1268D01*
X2386Y1270D01*
X2382Y1270D01*
X2382Y1272D01*
X2378Y1272D01*
X2378Y1274D01*
X2376Y1274D01*
X2376Y1276D01*
X2374Y1276D01*
X2374Y1278D01*
X1936Y1278D01*
G37*
D02*
G36*
X2436Y1278D02*
X2436Y1276D01*
X2434Y1276D01*
X2434Y1274D01*
X2432Y1274D01*
X2432Y1272D01*
X2428Y1272D01*
X2428Y1270D01*
X2424Y1270D01*
X2424Y1268D01*
X2420Y1268D01*
X2420Y1266D01*
X2414Y1266D01*
X2414Y1264D01*
X2574Y1264D01*
X2574Y1266D01*
X2558Y1266D01*
X2558Y1278D01*
X2436Y1278D01*
G37*
D02*
G36*
X1728Y1264D02*
X1728Y1262D01*
X2574Y1262D01*
X2574Y1264D01*
X1728Y1264D01*
G37*
D02*
G36*
X1728Y1264D02*
X1728Y1262D01*
X2574Y1262D01*
X2574Y1264D01*
X1728Y1264D01*
G37*
D02*
G36*
X1728Y1264D02*
X1728Y1262D01*
X2574Y1262D01*
X2574Y1264D01*
X1728Y1264D01*
G37*
D02*
G36*
X1728Y1262D02*
X1728Y1252D01*
X1732Y1252D01*
X1732Y1250D01*
X1734Y1250D01*
X1734Y1248D01*
X1736Y1248D01*
X1736Y1246D01*
X1738Y1246D01*
X1738Y1244D01*
X1740Y1244D01*
X1740Y1242D01*
X1742Y1242D01*
X1742Y1240D01*
X1744Y1240D01*
X1744Y1236D01*
X1746Y1236D01*
X1746Y1232D01*
X1748Y1232D01*
X1748Y1228D01*
X1750Y1228D01*
X1750Y1224D01*
X1752Y1224D01*
X1752Y1202D01*
X1750Y1202D01*
X1750Y1196D01*
X1748Y1196D01*
X1748Y1192D01*
X1746Y1192D01*
X1746Y1190D01*
X1744Y1190D01*
X1744Y1186D01*
X1742Y1186D01*
X1742Y1184D01*
X1740Y1184D01*
X1740Y1182D01*
X1738Y1182D01*
X1738Y1180D01*
X1736Y1180D01*
X1736Y1178D01*
X1734Y1178D01*
X1734Y1176D01*
X1732Y1176D01*
X1732Y1174D01*
X1728Y1174D01*
X1728Y1152D01*
X1732Y1152D01*
X1732Y1150D01*
X1734Y1150D01*
X1734Y1148D01*
X1736Y1148D01*
X1736Y1146D01*
X1738Y1146D01*
X1738Y1144D01*
X1740Y1144D01*
X1740Y1142D01*
X1742Y1142D01*
X1742Y1140D01*
X1744Y1140D01*
X1744Y1136D01*
X1746Y1136D01*
X1746Y1132D01*
X1748Y1132D01*
X1748Y1128D01*
X1750Y1128D01*
X1750Y1124D01*
X1752Y1124D01*
X1752Y1102D01*
X1750Y1102D01*
X1750Y1096D01*
X1748Y1096D01*
X1748Y1092D01*
X1746Y1092D01*
X1746Y1090D01*
X1744Y1090D01*
X1744Y1086D01*
X1742Y1086D01*
X1742Y1084D01*
X1740Y1084D01*
X1740Y1082D01*
X1738Y1082D01*
X1738Y1080D01*
X1736Y1080D01*
X1736Y1078D01*
X1734Y1078D01*
X1734Y1076D01*
X1732Y1076D01*
X1732Y1074D01*
X1728Y1074D01*
X1728Y1062D01*
X2212Y1062D01*
X2212Y1060D01*
X2220Y1060D01*
X2220Y1058D01*
X2224Y1058D01*
X2224Y1056D01*
X2228Y1056D01*
X2228Y1054D01*
X2230Y1054D01*
X2230Y1052D01*
X2234Y1052D01*
X2234Y1050D01*
X2236Y1050D01*
X2236Y1048D01*
X2238Y1048D01*
X2238Y1046D01*
X2572Y1046D01*
X2572Y1182D01*
X2570Y1182D01*
X2570Y1184D01*
X2568Y1184D01*
X2568Y1186D01*
X2566Y1186D01*
X2566Y1190D01*
X2564Y1190D01*
X2564Y1194D01*
X2562Y1194D01*
X2562Y1198D01*
X2560Y1198D01*
X2560Y1204D01*
X2558Y1204D01*
X2558Y1222D01*
X2560Y1222D01*
X2560Y1228D01*
X2562Y1228D01*
X2562Y1232D01*
X2564Y1232D01*
X2564Y1236D01*
X2566Y1236D01*
X2566Y1238D01*
X2568Y1238D01*
X2568Y1242D01*
X2570Y1242D01*
X2570Y1244D01*
X2572Y1244D01*
X2572Y1246D01*
X2574Y1246D01*
X2574Y1262D01*
X1728Y1262D01*
G37*
D02*
G36*
X1728Y1062D02*
X1728Y1052D01*
X1732Y1052D01*
X1732Y1050D01*
X1734Y1050D01*
X1734Y1048D01*
X1736Y1048D01*
X1736Y1046D01*
X1738Y1046D01*
X1738Y1044D01*
X1740Y1044D01*
X1740Y1042D01*
X1742Y1042D01*
X1742Y1040D01*
X1744Y1040D01*
X1744Y1036D01*
X1746Y1036D01*
X1746Y1032D01*
X1748Y1032D01*
X1748Y1028D01*
X1750Y1028D01*
X1750Y1024D01*
X1752Y1024D01*
X1752Y1002D01*
X1750Y1002D01*
X1750Y996D01*
X1748Y996D01*
X1748Y992D01*
X1746Y992D01*
X1746Y990D01*
X1744Y990D01*
X1744Y986D01*
X1742Y986D01*
X1742Y984D01*
X1740Y984D01*
X1740Y982D01*
X1738Y982D01*
X1738Y980D01*
X1736Y980D01*
X1736Y978D01*
X1734Y978D01*
X1734Y976D01*
X1732Y976D01*
X1732Y974D01*
X1728Y974D01*
X1728Y952D01*
X1732Y952D01*
X1732Y950D01*
X1734Y950D01*
X1734Y948D01*
X1736Y948D01*
X1736Y946D01*
X1738Y946D01*
X1738Y944D01*
X1740Y944D01*
X1740Y942D01*
X1742Y942D01*
X1742Y940D01*
X1744Y940D01*
X1744Y936D01*
X1746Y936D01*
X1746Y932D01*
X1748Y932D01*
X1748Y928D01*
X1750Y928D01*
X1750Y924D01*
X1752Y924D01*
X1752Y902D01*
X1750Y902D01*
X1750Y896D01*
X1748Y896D01*
X1748Y892D01*
X1746Y892D01*
X1746Y890D01*
X1744Y890D01*
X1744Y886D01*
X1742Y886D01*
X1742Y884D01*
X1740Y884D01*
X1740Y882D01*
X1738Y882D01*
X1738Y880D01*
X1736Y880D01*
X1736Y878D01*
X1734Y878D01*
X1734Y876D01*
X1732Y876D01*
X1732Y874D01*
X1728Y874D01*
X1728Y872D01*
X1726Y872D01*
X1726Y870D01*
X1722Y870D01*
X1722Y868D01*
X1716Y868D01*
X1716Y866D01*
X2072Y866D01*
X2072Y980D01*
X2070Y980D01*
X2070Y982D01*
X2068Y982D01*
X2068Y984D01*
X2066Y984D01*
X2066Y988D01*
X2064Y988D01*
X2064Y990D01*
X2062Y990D01*
X2062Y994D01*
X2060Y994D01*
X2060Y1000D01*
X2058Y1000D01*
X2058Y1006D01*
X2056Y1006D01*
X2056Y1020D01*
X2058Y1020D01*
X2058Y1026D01*
X2060Y1026D01*
X2060Y1032D01*
X2062Y1032D01*
X2062Y1036D01*
X2064Y1036D01*
X2064Y1038D01*
X2066Y1038D01*
X2066Y1042D01*
X2068Y1042D01*
X2068Y1044D01*
X2070Y1044D01*
X2070Y1046D01*
X2072Y1046D01*
X2072Y1048D01*
X2074Y1048D01*
X2074Y1050D01*
X2076Y1050D01*
X2076Y1052D01*
X2080Y1052D01*
X2080Y1054D01*
X2082Y1054D01*
X2082Y1056D01*
X2086Y1056D01*
X2086Y1058D01*
X2092Y1058D01*
X2092Y1060D01*
X2098Y1060D01*
X2098Y1062D01*
X1728Y1062D01*
G37*
D02*
G36*
X2112Y1062D02*
X2112Y1060D01*
X2120Y1060D01*
X2120Y1058D01*
X2124Y1058D01*
X2124Y1056D01*
X2128Y1056D01*
X2128Y1054D01*
X2130Y1054D01*
X2130Y1052D01*
X2134Y1052D01*
X2134Y1050D01*
X2136Y1050D01*
X2136Y1048D01*
X2138Y1048D01*
X2138Y1046D01*
X2140Y1046D01*
X2140Y1044D01*
X2142Y1044D01*
X2142Y1042D01*
X2144Y1042D01*
X2144Y1040D01*
X2146Y1040D01*
X2146Y1038D01*
X2166Y1038D01*
X2166Y1042D01*
X2168Y1042D01*
X2168Y1044D01*
X2170Y1044D01*
X2170Y1046D01*
X2172Y1046D01*
X2172Y1048D01*
X2174Y1048D01*
X2174Y1050D01*
X2176Y1050D01*
X2176Y1052D01*
X2180Y1052D01*
X2180Y1054D01*
X2182Y1054D01*
X2182Y1056D01*
X2186Y1056D01*
X2186Y1058D01*
X2192Y1058D01*
X2192Y1060D01*
X2198Y1060D01*
X2198Y1062D01*
X2112Y1062D01*
G37*
D02*
G36*
X1640Y904D02*
X1640Y866D01*
X1694Y866D01*
X1694Y868D01*
X1690Y868D01*
X1690Y870D01*
X1686Y870D01*
X1686Y872D01*
X1682Y872D01*
X1682Y874D01*
X1678Y874D01*
X1678Y876D01*
X1676Y876D01*
X1676Y878D01*
X1674Y878D01*
X1674Y880D01*
X1672Y880D01*
X1672Y882D01*
X1670Y882D01*
X1670Y884D01*
X1668Y884D01*
X1668Y886D01*
X1666Y886D01*
X1666Y890D01*
X1664Y890D01*
X1664Y894D01*
X1662Y894D01*
X1662Y898D01*
X1660Y898D01*
X1660Y904D01*
X1640Y904D01*
G37*
D02*
G36*
X1640Y866D02*
X1640Y864D01*
X2072Y864D01*
X2072Y866D01*
X1640Y866D01*
G37*
D02*
G36*
X1640Y866D02*
X1640Y864D01*
X2072Y864D01*
X2072Y866D01*
X1640Y866D01*
G37*
D02*
G36*
X1640Y864D02*
X1640Y562D01*
X1712Y562D01*
X1712Y560D01*
X1720Y560D01*
X1720Y558D01*
X1724Y558D01*
X1724Y556D01*
X1728Y556D01*
X1728Y554D01*
X1730Y554D01*
X1730Y552D01*
X1734Y552D01*
X1734Y550D01*
X1736Y550D01*
X1736Y548D01*
X1738Y548D01*
X1738Y546D01*
X1740Y546D01*
X1740Y544D01*
X1742Y544D01*
X1742Y542D01*
X1744Y542D01*
X1744Y540D01*
X1746Y540D01*
X1746Y536D01*
X1748Y536D01*
X1748Y532D01*
X1750Y532D01*
X1750Y528D01*
X1752Y528D01*
X1752Y522D01*
X1754Y522D01*
X1754Y504D01*
X1752Y504D01*
X1752Y498D01*
X1750Y498D01*
X1750Y494D01*
X1748Y494D01*
X1748Y490D01*
X1746Y490D01*
X1746Y486D01*
X1744Y486D01*
X1744Y484D01*
X1742Y484D01*
X1742Y482D01*
X1740Y482D01*
X1740Y480D01*
X1738Y480D01*
X1738Y478D01*
X1736Y478D01*
X1736Y476D01*
X1734Y476D01*
X1734Y474D01*
X1732Y474D01*
X1732Y472D01*
X1728Y472D01*
X1728Y470D01*
X1724Y470D01*
X1724Y468D01*
X1720Y468D01*
X1720Y466D01*
X1714Y466D01*
X1714Y464D01*
X2070Y464D01*
X2070Y652D01*
X2072Y652D01*
X2072Y864D01*
X1640Y864D01*
G37*
D02*
G36*
X1640Y562D02*
X1640Y544D01*
X1642Y544D01*
X1642Y542D01*
X1644Y542D01*
X1644Y540D01*
X1646Y540D01*
X1646Y538D01*
X1666Y538D01*
X1666Y542D01*
X1668Y542D01*
X1668Y544D01*
X1670Y544D01*
X1670Y546D01*
X1672Y546D01*
X1672Y548D01*
X1674Y548D01*
X1674Y550D01*
X1676Y550D01*
X1676Y552D01*
X1680Y552D01*
X1680Y554D01*
X1682Y554D01*
X1682Y556D01*
X1686Y556D01*
X1686Y558D01*
X1692Y558D01*
X1692Y560D01*
X1698Y560D01*
X1698Y562D01*
X1640Y562D01*
G37*
D02*
G36*
X1646Y488D02*
X1646Y486D01*
X1644Y486D01*
X1644Y484D01*
X1642Y484D01*
X1642Y482D01*
X1640Y482D01*
X1640Y464D01*
X1696Y464D01*
X1696Y466D01*
X1690Y466D01*
X1690Y468D01*
X1686Y468D01*
X1686Y470D01*
X1682Y470D01*
X1682Y472D01*
X1678Y472D01*
X1678Y474D01*
X1676Y474D01*
X1676Y476D01*
X1674Y476D01*
X1674Y478D01*
X1672Y478D01*
X1672Y480D01*
X1670Y480D01*
X1670Y482D01*
X1668Y482D01*
X1668Y484D01*
X1666Y484D01*
X1666Y488D01*
X1646Y488D01*
G37*
D02*
G36*
X1240Y478D02*
X1240Y264D01*
X1456Y264D01*
X1456Y362D01*
X1472Y362D01*
X1472Y464D01*
X1456Y464D01*
X1456Y478D01*
X1240Y478D01*
G37*
D02*
G36*
X1640Y464D02*
X1640Y462D01*
X2070Y462D01*
X2070Y464D01*
X1640Y464D01*
G37*
D02*
G36*
X1640Y464D02*
X1640Y462D01*
X2070Y462D01*
X2070Y464D01*
X1640Y464D01*
G37*
D02*
G36*
X1640Y462D02*
X1640Y344D01*
X1642Y344D01*
X1642Y342D01*
X1644Y342D01*
X1644Y340D01*
X1646Y340D01*
X1646Y336D01*
X1648Y336D01*
X1648Y332D01*
X1650Y332D01*
X1650Y328D01*
X1652Y328D01*
X1652Y322D01*
X1654Y322D01*
X1654Y304D01*
X1652Y304D01*
X1652Y298D01*
X1650Y298D01*
X1650Y294D01*
X1648Y294D01*
X1648Y290D01*
X1646Y290D01*
X1646Y286D01*
X1644Y286D01*
X1644Y284D01*
X1642Y284D01*
X1642Y282D01*
X1640Y282D01*
X1640Y280D01*
X1638Y280D01*
X1638Y278D01*
X1636Y278D01*
X1636Y276D01*
X1634Y276D01*
X1634Y274D01*
X1632Y274D01*
X1632Y272D01*
X1628Y272D01*
X1628Y270D01*
X1624Y270D01*
X1624Y268D01*
X1620Y268D01*
X1620Y266D01*
X1614Y266D01*
X1614Y264D01*
X2070Y264D01*
X2070Y462D01*
X1640Y462D01*
G37*
D02*
G36*
X1554Y278D02*
X1554Y264D01*
X1596Y264D01*
X1596Y266D01*
X1590Y266D01*
X1590Y268D01*
X1586Y268D01*
X1586Y270D01*
X1582Y270D01*
X1582Y272D01*
X1578Y272D01*
X1578Y274D01*
X1576Y274D01*
X1576Y276D01*
X1574Y276D01*
X1574Y278D01*
X1554Y278D01*
G37*
D02*
G36*
X1240Y264D02*
X1240Y262D01*
X2070Y262D01*
X2070Y264D01*
X1240Y264D01*
G37*
D02*
G36*
X1240Y264D02*
X1240Y262D01*
X2070Y262D01*
X2070Y264D01*
X1240Y264D01*
G37*
D02*
G36*
X1240Y264D02*
X1240Y262D01*
X2070Y262D01*
X2070Y264D01*
X1240Y264D01*
G37*
D02*
G36*
X1240Y262D02*
X1240Y148D01*
X2070Y148D01*
X2070Y262D01*
X1240Y262D01*
G37*
D02*
G04 End of Copper1*
M02*