; NON-PLATED HOLES START AT T1
; THROUGH (PLATED) HOLES START AT T100
M48
INCH
T100C0.050000
T101C0.031497
T102C0.044111
T103C0.100000
T104C0.044139
T105C0.080000
T106C0.038000
T107C0.015748
T108C0.150000
T109C0.088355
T110C0.035000
T111C0.092000
%
T100
X009867Y014725
X014867Y008725
X009867Y002725
X014867Y014725
X009867Y008725
X014867Y002725
T101
X033017Y017605
X033017Y016621
X032017Y005605
X032017Y004621
X032017Y011605
X032017Y010621
T102
X030017Y015605
X024017Y009605
X024017Y003605
X030017Y016605
X030017Y010605
X024017Y004605
X024017Y015605
X024017Y016605
X030017Y009605
X024017Y010605
X030017Y003605
X030017Y004605
T103
X041017Y002605
X043417Y002605
X042217Y004505
T104
X024017Y017606
X030017Y011606
X024017Y005605
X030017Y017606
X024017Y011606
X030017Y005605
T105
X009867Y018485
X014867Y012485
X009867Y006485
X014867Y018485
X009867Y012485
X014867Y006485
T106
X036017Y005605
X036017Y015605
X036017Y016605
X036017Y010605
X036017Y017605
X036017Y011605
X036017Y009605
X036017Y003605
X036017Y004605
T107
X036017Y002605
T108
X003017Y004605
X003017Y016605
X006017Y004605
X003017Y010605
X006017Y016605
X006017Y010605
T109
X027064Y008664
X027064Y002664
X021064Y008664
X027064Y006547
X021064Y002664
X021064Y006547
X027064Y014664
X027064Y018547
X021064Y014664
X027064Y012547
X021064Y018547
X021064Y012547
T110
X041017Y007605
X018017Y018605
X041017Y011605
X034017Y014605
X018017Y012605
X044017Y009605
X018017Y005605
X044017Y013605
X041017Y009605
X044017Y010605
X033017Y008605
X041017Y013605
X041017Y010605
X033017Y002605
X019017Y018605
X044017Y008605
X044017Y012605
X019017Y012605
X033017Y014605
X041017Y008605
X019017Y005605
X041017Y012605
X034017Y008605
X044017Y007605
X034017Y002605
X044017Y011605
T111
X012017Y004605
X017017Y016605
X017017Y010605
X009017Y016605
X009017Y010605
X014017Y004605
X012017Y016605
X012017Y010605
X017017Y004605
X014017Y016605
X014017Y010605
X009017Y004605
T00
M30
