G04 MADE WITH FRITZING*
G04 WWW.FRITZING.ORG*
G04 DOUBLE SIDED*
G04 HOLES PLATED*
G04 CONTOUR ON CENTER OF CONTOUR VECTOR*
%ASAXBY*%
%FSLAX23Y23*%
%MOIN*%
%OFA0B0*%
%SFA1.0B1.0*%
%ADD10C,0.085000*%
%ADD11C,0.081889*%
%ADD12C,0.081917*%
%ADD13C,0.134033*%
%ADD14C,0.225000*%
%ADD15C,0.088000*%
%ADD16C,0.072992*%
%ADD17C,0.158000*%
%ADD18C,0.142000*%
%ADD19C,0.120000*%
%ADD20C,0.182000*%
%ADD21C,0.150000*%
%ADD22C,0.049370*%
%ADD23R,0.085000X0.085000*%
%ADD24R,0.088000X0.088000*%
%ADD25R,0.072992X0.072992*%
%ADD26R,0.160000X0.160000*%
%LNMASK0*%
G90*
G70*
G54D10*
X4102Y1361D03*
X4402Y1361D03*
X4102Y1261D03*
X4402Y1261D03*
X4102Y1161D03*
X4402Y1161D03*
X4102Y1061D03*
X4402Y1061D03*
X4102Y961D03*
X4402Y961D03*
X4102Y861D03*
X4402Y861D03*
X4102Y761D03*
X4402Y761D03*
G54D11*
X3002Y361D03*
X3002Y461D03*
G54D12*
X3002Y561D03*
G54D13*
X2706Y266D03*
X2706Y655D03*
G54D11*
X2402Y361D03*
X2402Y461D03*
G54D12*
X2402Y561D03*
G54D13*
X2106Y266D03*
X2106Y655D03*
G54D11*
X3002Y961D03*
X3002Y1061D03*
G54D12*
X3002Y1161D03*
G54D13*
X2706Y866D03*
X2706Y1255D03*
G54D11*
X2402Y961D03*
X2402Y1061D03*
G54D12*
X2402Y1161D03*
G54D13*
X2106Y866D03*
X2106Y1255D03*
G54D11*
X2402Y1561D03*
X2402Y1661D03*
G54D12*
X2402Y1761D03*
G54D13*
X2106Y1466D03*
X2106Y1855D03*
G54D11*
X3002Y1561D03*
X3002Y1661D03*
G54D12*
X3002Y1761D03*
G54D13*
X2706Y1466D03*
X2706Y1855D03*
G54D14*
X602Y461D03*
X302Y461D03*
X602Y1061D03*
X602Y1661D03*
X302Y1061D03*
X302Y1661D03*
G54D15*
X3602Y1761D03*
X3602Y1661D03*
X3602Y1561D03*
X3602Y1161D03*
X3602Y1061D03*
X3602Y961D03*
X3602Y561D03*
X3602Y461D03*
X3602Y361D03*
G54D16*
X3302Y1662D03*
X3302Y1761D03*
X3202Y1062D03*
X3202Y1161D03*
X3202Y462D03*
X3202Y561D03*
G54D17*
X1202Y1061D03*
G54D18*
X987Y1249D03*
G54D19*
X987Y873D03*
G54D20*
X902Y1061D03*
G54D17*
X1202Y1661D03*
G54D18*
X987Y1849D03*
G54D19*
X987Y1473D03*
G54D20*
X902Y1661D03*
G54D17*
X1702Y1661D03*
G54D18*
X1487Y1849D03*
G54D19*
X1487Y1473D03*
G54D20*
X1402Y1661D03*
G54D17*
X1702Y1061D03*
G54D18*
X1487Y1249D03*
G54D19*
X1487Y873D03*
G54D20*
X1402Y1061D03*
G54D17*
X1702Y461D03*
G54D18*
X1487Y649D03*
G54D19*
X1487Y273D03*
G54D20*
X1402Y461D03*
G54D17*
X1202Y461D03*
G54D18*
X987Y649D03*
G54D19*
X987Y273D03*
G54D20*
X902Y461D03*
G54D21*
X4342Y261D03*
X4102Y261D03*
X4222Y451D03*
X4342Y261D03*
X4102Y261D03*
X4222Y451D03*
G54D10*
X3402Y1461D03*
X3302Y1461D03*
X1902Y561D03*
X1802Y561D03*
X1902Y1261D03*
X1802Y1261D03*
X1902Y1861D03*
X1802Y1861D03*
X3402Y261D03*
X3302Y261D03*
X3402Y861D03*
X3302Y861D03*
G54D22*
X3602Y261D03*
G54D23*
X4102Y1361D03*
G54D24*
X3602Y1761D03*
X3602Y1161D03*
X3602Y561D03*
G54D25*
X3302Y1662D03*
X3202Y1062D03*
X3202Y462D03*
G54D26*
X1201Y1061D03*
X1201Y1661D03*
X1701Y1661D03*
X1701Y1061D03*
X1701Y461D03*
X1201Y461D03*
G54D23*
X3402Y1461D03*
X1902Y561D03*
X1902Y1261D03*
X1902Y1861D03*
X3402Y261D03*
X3402Y861D03*
G04 End of Mask0*
M02*