G04 MADE WITH FRITZING*
G04 WWW.FRITZING.ORG*
G04 DOUBLE SIDED*
G04 HOLES PLATED*
G04 CONTOUR ON CENTER OF CONTOUR VECTOR*
%ASAXBY*%
%FSLAX23Y23*%
%MOIN*%
%OFA0B0*%
%SFA1.0B1.0*%
%ADD10C,0.078000*%
%ADD11C,0.075000*%
%ADD12C,0.215000*%
%ADD13C,0.140000*%
%ADD14C,0.071889*%
%ADD15C,0.071917*%
%ADD16C,0.124033*%
%ADD17C,0.062992*%
%ADD18C,0.157480*%
%ADD19C,0.148000*%
%ADD20C,0.132000*%
%ADD21C,0.110000*%
%ADD22C,0.172000*%
%ADD23R,0.078000X0.078000*%
%ADD24R,0.075000X0.075000*%
%ADD25R,0.062992X0.062992*%
%ADD26R,0.043307X0.047244*%
%ADD27R,0.150000X0.150000*%
%ADD28C,0.048000*%
%ADD29C,0.032000*%
%ADD30C,0.024000*%
%LNCOPPER1*%
G90*
G70*
G54D10*
X233Y953D03*
X233Y853D03*
X233Y753D03*
X533Y953D03*
X533Y853D03*
X533Y753D03*
X833Y953D03*
X833Y853D03*
X833Y753D03*
X1133Y953D03*
X1133Y853D03*
X1133Y753D03*
X1433Y953D03*
X1433Y853D03*
X1433Y753D03*
X1733Y953D03*
X1733Y853D03*
X1733Y753D03*
X2033Y953D03*
X2033Y853D03*
X2033Y753D03*
X2333Y953D03*
X2333Y853D03*
X2333Y753D03*
G54D11*
X2433Y353D03*
X2533Y353D03*
X2133Y353D03*
X2233Y353D03*
X1833Y353D03*
X1933Y353D03*
X1533Y353D03*
X1633Y353D03*
X1233Y353D03*
X1333Y353D03*
X933Y353D03*
X1033Y353D03*
X633Y353D03*
X733Y353D03*
X333Y353D03*
X433Y353D03*
X2733Y453D03*
X2733Y753D03*
X2833Y453D03*
X2833Y753D03*
X2933Y453D03*
X2933Y753D03*
X3033Y453D03*
X3033Y753D03*
X3133Y453D03*
X3133Y753D03*
X3233Y453D03*
X3233Y753D03*
X3333Y453D03*
X3333Y753D03*
G54D12*
X3733Y1253D03*
X3733Y1253D03*
X3733Y853D03*
X3733Y853D03*
G54D13*
X3973Y453D03*
X3733Y453D03*
X3853Y643D03*
X3973Y453D03*
X3733Y453D03*
X3853Y643D03*
G54D14*
X433Y1553D03*
X333Y1553D03*
G54D15*
X233Y1553D03*
G54D16*
X527Y1257D03*
X139Y1257D03*
G54D14*
X433Y1553D03*
X333Y1553D03*
G54D15*
X233Y1553D03*
G54D16*
X527Y1257D03*
X139Y1257D03*
G54D17*
X2334Y553D03*
X2433Y553D03*
X2034Y553D03*
X2133Y553D03*
X1734Y553D03*
X1833Y553D03*
X1434Y553D03*
X1533Y553D03*
X1134Y553D03*
X1233Y553D03*
X834Y553D03*
X933Y553D03*
X534Y553D03*
X633Y553D03*
X234Y553D03*
X333Y553D03*
G54D18*
X4033Y153D03*
X4033Y1453D03*
G54D19*
X3133Y1353D03*
G54D20*
X2918Y1541D03*
G54D21*
X2918Y1165D03*
G54D22*
X2833Y1353D03*
G54D23*
X233Y953D03*
X533Y953D03*
X833Y953D03*
X1133Y953D03*
X1433Y953D03*
X1733Y953D03*
X2033Y953D03*
X2333Y953D03*
G54D24*
X2433Y353D03*
X2133Y353D03*
X1833Y353D03*
X1533Y353D03*
X1233Y353D03*
X933Y353D03*
X633Y353D03*
X333Y353D03*
X2733Y453D03*
G54D25*
X2334Y553D03*
X2034Y553D03*
X1734Y553D03*
X1434Y553D03*
X1134Y553D03*
X834Y553D03*
X534Y553D03*
X234Y553D03*
G54D26*
X2233Y753D03*
X2233Y686D03*
X1633Y753D03*
X1633Y686D03*
X1333Y753D03*
X1333Y686D03*
X1033Y753D03*
X1033Y686D03*
X733Y753D03*
X733Y686D03*
X433Y753D03*
X433Y686D03*
X133Y753D03*
X133Y686D03*
G54D27*
X3132Y1353D03*
G54D28*
X2233Y854D02*
X2292Y853D01*
D02*
X2233Y771D02*
X2233Y854D01*
D02*
X1633Y854D02*
X1692Y853D01*
D02*
X1633Y771D02*
X1633Y854D01*
D02*
X1335Y854D02*
X1392Y853D01*
D02*
X1333Y771D02*
X1335Y854D01*
D02*
X1032Y854D02*
X1092Y853D01*
D02*
X1033Y771D02*
X1032Y854D01*
D02*
X734Y854D02*
X792Y853D01*
D02*
X733Y771D02*
X734Y854D01*
D02*
X432Y854D02*
X492Y853D01*
D02*
X433Y771D02*
X432Y854D01*
D02*
X134Y854D02*
X192Y853D01*
D02*
X133Y771D02*
X134Y854D01*
D02*
X733Y553D02*
X671Y553D01*
D02*
X733Y392D02*
X733Y553D01*
G54D29*
D02*
X833Y653D02*
X749Y680D01*
D02*
X910Y576D02*
X833Y653D01*
G54D28*
D02*
X1033Y553D02*
X971Y553D01*
D02*
X1033Y392D02*
X1033Y553D01*
D02*
X1333Y553D02*
X1271Y553D01*
D02*
X1333Y392D02*
X1333Y553D01*
G54D30*
D02*
X1133Y653D02*
X1049Y680D01*
D02*
X1214Y572D02*
X1133Y653D01*
G54D28*
D02*
X1633Y553D02*
X1633Y392D01*
D02*
X1571Y553D02*
X1633Y553D01*
G54D30*
D02*
X1433Y653D02*
X1349Y680D01*
D02*
X1514Y572D02*
X1433Y653D01*
G54D28*
D02*
X1933Y553D02*
X1933Y392D01*
D02*
X1871Y553D02*
X1933Y553D01*
G54D30*
D02*
X1733Y653D02*
X1649Y680D01*
D02*
X1814Y572D02*
X1733Y653D01*
G54D28*
D02*
X2533Y553D02*
X2471Y553D01*
D02*
X2533Y392D02*
X2533Y553D01*
G54D30*
D02*
X2333Y653D02*
X2249Y680D01*
D02*
X2414Y572D02*
X2333Y653D01*
G54D28*
D02*
X2233Y553D02*
X2233Y392D01*
D02*
X2171Y553D02*
X2233Y553D01*
D02*
X2633Y853D02*
X2633Y253D01*
D02*
X2633Y253D02*
X2433Y153D01*
D02*
X2433Y153D02*
X2433Y313D01*
D02*
X3333Y1053D02*
X3032Y852D01*
D02*
X3646Y896D02*
X3333Y1053D01*
D02*
X2133Y253D02*
X2133Y313D01*
D02*
X2433Y153D02*
X2133Y253D01*
D02*
X1833Y153D02*
X1833Y313D01*
D02*
X2133Y253D02*
X1833Y153D01*
D02*
X1533Y253D02*
X1533Y313D01*
D02*
X1833Y153D02*
X1533Y253D01*
D02*
X1233Y153D02*
X1233Y313D01*
D02*
X1533Y253D02*
X1233Y153D01*
D02*
X933Y253D02*
X933Y313D01*
D02*
X1233Y153D02*
X933Y253D01*
D02*
X633Y153D02*
X633Y313D01*
D02*
X933Y253D02*
X633Y153D01*
D02*
X333Y253D02*
X333Y313D01*
D02*
X633Y153D02*
X333Y253D01*
D02*
X233Y1153D02*
X233Y994D01*
D02*
X233Y1508D02*
X233Y1153D01*
D02*
X533Y1053D02*
X533Y994D01*
D02*
X233Y1153D02*
X533Y1053D01*
D02*
X833Y1153D02*
X833Y994D01*
D02*
X533Y1053D02*
X833Y1153D01*
D02*
X1133Y1056D02*
X1133Y1053D01*
D02*
X833Y1153D02*
X1133Y1056D01*
D02*
X1433Y1153D02*
X1433Y994D01*
D02*
X1133Y1056D02*
X1433Y1153D01*
D02*
X1733Y1053D02*
X1733Y994D01*
D02*
X1433Y1153D02*
X1733Y1053D01*
D02*
X2033Y1153D02*
X2033Y994D01*
D02*
X1733Y1053D02*
X2033Y1153D01*
D02*
X2333Y1049D02*
X2333Y994D01*
D02*
X2033Y1153D02*
X2333Y1049D01*
D02*
X3033Y653D02*
X3433Y653D01*
D02*
X2833Y653D02*
X3033Y653D01*
D02*
X2761Y725D02*
X2833Y653D01*
D02*
X3433Y653D02*
X3781Y644D01*
D02*
X2744Y1541D02*
X2333Y1153D01*
D02*
X1733Y1153D02*
X1433Y1253D01*
D02*
X2333Y1153D02*
X2033Y1253D01*
D02*
X2033Y1253D02*
X1733Y1153D01*
D02*
X533Y1153D02*
X333Y1253D01*
D02*
X1433Y1253D02*
X1133Y1153D01*
D02*
X1133Y1153D02*
X833Y1253D01*
D02*
X833Y1253D02*
X533Y1153D01*
D02*
X333Y1253D02*
X333Y1508D01*
D02*
X2856Y1541D02*
X2744Y1541D01*
D02*
X1133Y1053D02*
X1133Y994D01*
D02*
X3032Y852D02*
X2633Y853D01*
G54D30*
D02*
X233Y653D02*
X314Y572D01*
D02*
X149Y680D02*
X233Y653D01*
D02*
X533Y653D02*
X449Y680D01*
D02*
X614Y572D02*
X533Y653D01*
G54D28*
D02*
X433Y553D02*
X371Y553D01*
D02*
X433Y392D02*
X433Y553D01*
G04 End of Copper1*
M02*