G04 MADE WITH FRITZING*
G04 WWW.FRITZING.ORG*
G04 DOUBLE SIDED*
G04 HOLES PLATED*
G04 CONTOUR ON CENTER OF CONTOUR VECTOR*
%ASAXBY*%
%FSLAX23Y23*%
%MOIN*%
%OFA0B0*%
%SFA1.0B1.0*%
%ADD10C,0.078000*%
%ADD11C,0.075000*%
%ADD12C,0.215000*%
%ADD13C,0.140000*%
%ADD14C,0.071889*%
%ADD15C,0.071917*%
%ADD16C,0.124033*%
%ADD17C,0.062992*%
%ADD18C,0.157480*%
%ADD19C,0.148000*%
%ADD20C,0.132000*%
%ADD21C,0.110000*%
%ADD22C,0.172000*%
%ADD23R,0.078000X0.078000*%
%ADD24R,0.075000X0.075000*%
%ADD25R,0.062992X0.062992*%
%ADD26R,0.150000X0.150000*%
%ADD27C,0.048000*%
%LNCOPPER0*%
G90*
G70*
G54D10*
X233Y953D03*
X233Y853D03*
X233Y753D03*
X533Y953D03*
X533Y853D03*
X533Y753D03*
X833Y953D03*
X833Y853D03*
X833Y753D03*
X1133Y953D03*
X1133Y853D03*
X1133Y753D03*
X1433Y953D03*
X1433Y853D03*
X1433Y753D03*
X1733Y953D03*
X1733Y853D03*
X1733Y753D03*
X2033Y953D03*
X2033Y853D03*
X2033Y753D03*
X2333Y953D03*
X2333Y853D03*
X2333Y753D03*
G54D11*
X2433Y353D03*
X2533Y353D03*
X2133Y353D03*
X2233Y353D03*
X1833Y353D03*
X1933Y353D03*
X1533Y353D03*
X1633Y353D03*
X1233Y353D03*
X1333Y353D03*
X933Y353D03*
X1033Y353D03*
X633Y353D03*
X733Y353D03*
X333Y353D03*
X433Y353D03*
X2733Y453D03*
X2733Y753D03*
X2833Y453D03*
X2833Y753D03*
X2933Y453D03*
X2933Y753D03*
X3033Y453D03*
X3033Y753D03*
X3133Y453D03*
X3133Y753D03*
X3233Y453D03*
X3233Y753D03*
X3333Y453D03*
X3333Y753D03*
G54D12*
X3733Y1253D03*
X3733Y853D03*
G54D13*
X3973Y453D03*
X3733Y453D03*
X3853Y643D03*
X3973Y453D03*
X3733Y453D03*
X3853Y643D03*
G54D14*
X433Y1553D03*
X333Y1553D03*
G54D15*
X233Y1553D03*
G54D16*
X527Y1257D03*
X139Y1257D03*
G54D14*
X433Y1553D03*
X333Y1553D03*
G54D15*
X233Y1553D03*
G54D16*
X527Y1257D03*
X139Y1257D03*
G54D17*
X2334Y553D03*
X2433Y553D03*
X2034Y553D03*
X2133Y553D03*
X1734Y553D03*
X1833Y553D03*
X1434Y553D03*
X1533Y553D03*
X1134Y553D03*
X1233Y553D03*
X834Y553D03*
X933Y553D03*
X534Y553D03*
X633Y553D03*
X234Y553D03*
X333Y553D03*
G54D18*
X4033Y153D03*
X4033Y1453D03*
G54D19*
X3133Y1353D03*
G54D20*
X2918Y1541D03*
G54D21*
X2918Y1165D03*
G54D22*
X2833Y1353D03*
G54D23*
X233Y953D03*
X533Y953D03*
X833Y953D03*
X1133Y953D03*
X1433Y953D03*
X1733Y953D03*
X2033Y953D03*
X2333Y953D03*
G54D24*
X2433Y353D03*
X2133Y353D03*
X1833Y353D03*
X1533Y353D03*
X1233Y353D03*
X933Y353D03*
X633Y353D03*
X333Y353D03*
X2733Y453D03*
G54D25*
X2334Y553D03*
X2034Y553D03*
X1734Y553D03*
X1434Y553D03*
X1134Y553D03*
X834Y553D03*
X534Y553D03*
X234Y553D03*
G54D26*
X3132Y1353D03*
G54D27*
X834Y515D02*
X833Y153D01*
D02*
X1133Y53D02*
X1134Y515D01*
D02*
X1433Y153D02*
X1434Y515D01*
D02*
X1733Y53D02*
X1734Y515D01*
D02*
X2033Y153D02*
X2034Y515D01*
D02*
X2333Y53D02*
X2334Y515D01*
D02*
X3431Y1250D02*
X3636Y1252D01*
D02*
X3032Y951D02*
X3431Y1250D01*
D02*
X1733Y1453D02*
X2033Y1553D01*
D02*
X2033Y1553D02*
X2433Y1553D01*
D02*
X2433Y1553D02*
X2633Y953D01*
D02*
X2633Y953D02*
X3032Y951D01*
D02*
X1433Y1553D02*
X1733Y1453D01*
D02*
X1133Y1453D02*
X1433Y1553D01*
D02*
X733Y1553D02*
X1133Y1453D01*
D02*
X733Y1453D02*
X733Y1553D01*
D02*
X433Y1453D02*
X733Y1453D01*
D02*
X364Y1521D02*
X433Y1453D01*
D02*
X2333Y1453D02*
X2533Y953D01*
D02*
X2033Y1453D02*
X2333Y1453D01*
D02*
X1433Y1453D02*
X1733Y1353D01*
D02*
X1133Y1353D02*
X1433Y1453D01*
D02*
X1733Y1353D02*
X2033Y1453D01*
D02*
X2533Y953D02*
X2533Y753D01*
D02*
X2833Y553D02*
X2833Y492D01*
D02*
X2533Y753D02*
X2833Y553D01*
D02*
X733Y1453D02*
X1133Y1353D01*
D02*
X2433Y753D02*
X2705Y481D01*
D02*
X2433Y1053D02*
X2433Y753D01*
D02*
X2233Y1353D02*
X2433Y1053D01*
D02*
X2033Y1353D02*
X2233Y1353D01*
D02*
X1433Y1353D02*
X1733Y1253D01*
D02*
X1733Y1253D02*
X2033Y1353D01*
D02*
X1133Y1253D02*
X1433Y1353D01*
D02*
X733Y1353D02*
X1133Y1253D01*
D02*
X433Y1353D02*
X733Y1353D01*
D02*
X233Y1553D02*
X433Y1353D01*
D02*
X433Y1353D02*
X233Y1553D01*
D02*
X264Y1521D02*
X433Y1353D01*
D02*
X3333Y153D02*
X2733Y253D01*
D02*
X2733Y253D02*
X2333Y53D01*
D02*
X2333Y53D02*
X2033Y153D01*
D02*
X2033Y153D02*
X1733Y53D01*
D02*
X1733Y53D02*
X1433Y153D01*
D02*
X1433Y153D02*
X1133Y53D01*
D02*
X1133Y53D02*
X833Y153D01*
D02*
X833Y153D02*
X533Y53D01*
D02*
X533Y53D02*
X233Y153D01*
D02*
X233Y153D02*
X234Y515D01*
D02*
X3633Y153D02*
X3919Y405D01*
D02*
X3333Y153D02*
X3633Y153D01*
D02*
X3333Y413D02*
X3333Y153D01*
D02*
X534Y515D02*
X533Y53D01*
D02*
X3333Y1353D02*
X3201Y1353D01*
D02*
X3333Y1553D02*
X3333Y1353D01*
D02*
X3983Y1303D02*
X3833Y1553D01*
D02*
X3833Y1553D02*
X3333Y1553D01*
D02*
X3974Y525D02*
X3983Y1303D01*
D02*
X3065Y1353D02*
X2901Y1353D01*
G04 End of Copper0*
M02*