; NON-PLATED HOLES START AT T1
; THROUGH (PLATED) HOLES START AT T100
M48
INCH
T100C0.044111
T101C0.100000
T102C0.125984
T103C0.044139
T104C0.080000
T105C0.038000
T106C0.150000
T107C0.088355
T108C0.035000
T109C0.092000
T110C0.050000
T111C0.031497
%
T100
X004328Y015526
X003328Y015526
T101
X037328Y004526
X039728Y004526
X038528Y006426
T102
X040328Y014526
X040328Y001526
T103
X002328Y015526
T104
X029178Y015406
T105
X008328Y007526
X011328Y007526
X014328Y008526
X005328Y007526
X023328Y007526
X002328Y007526
X017328Y007526
X008328Y009526
X020328Y007526
X011328Y009526
X014328Y007526
X005328Y009526
X023328Y009526
X002328Y009526
X017328Y009526
X020328Y009526
X008328Y008526
X011328Y008526
X014328Y009526
X005328Y008526
X023328Y008526
X002328Y008526
X017328Y008526
X020328Y008526
T106
X037328Y008526
X037328Y012526
T107
X005269Y012573
X001386Y012573
T108
X010328Y003526
X033328Y004526
X006328Y003526
X027328Y007526
X025328Y003526
X030328Y007526
X004328Y003526
X024328Y003526
X027328Y004526
X030328Y004526
X003328Y003526
X019328Y003526
X022328Y003526
X018328Y003526
X021328Y003526
X015328Y003526
X009328Y003526
X012328Y003526
X029328Y007526
X032328Y007526
X028328Y007526
X031328Y007526
X029328Y004526
X032328Y004526
X028328Y004526
X031328Y004526
X016328Y003526
X013328Y003526
X033328Y007526
X007328Y003526
T109
X031328Y013526
X028328Y013526
T110
X029178Y011646
T111
X017344Y005526
X018328Y005526
X008344Y005526
X009328Y005526
X020344Y005526
X002344Y005526
X021328Y005526
X003328Y005526
X011344Y005526
X012328Y005526
X005344Y005526
X024328Y005526
X006328Y005526
X014344Y005526
X015328Y005526
X023344Y005526
T00
M30
